<?xml version="1.0" encoding="utf-8"?>
<!-- Generator: Adobe Illustrator 16.0.0, SVG Export Plug-In . SVG Version: 6.00 Build 0)  -->
<!DOCTYPE svg PUBLIC "-//W3C//DTD SVG 1.0//EN" "http://www.w3.org/TR/2001/REC-SVG-20010904/DTD/svg10.dtd">
<svg version="1.0" id="Layer_1" xmlns="http://www.w3.org/2000/svg" xmlns:xlink="http://www.w3.org/1999/xlink" x="0px" y="0px"
	 width="100px" height="100px" viewBox="0 0 100 100" enable-background="new 0 0 100 100" xml:space="preserve">
<path fill="#263238" d="M50,10c-22.09,0-40,17.909-40,40c0,22.09,17.91,40,40,40s40-17.91,40-40C90,27.909,72.09,10,50,10z
	 M50,83.334c-18.408,0-33.333-14.926-33.333-33.334c0-18.41,14.925-33.333,33.333-33.333c18.408,0,33.334,14.924,33.334,33.333
	C83.334,68.408,68.408,83.334,50,83.334z"/>
<path fill="#FFB74D" d="M56.667,30c-11.045,0-20,8.958-20,20c0,7.366,5.97,13.334,13.333,13.334S63.334,57.366,63.334,50
	c0-3.685-2.985-6.667-6.667-6.667S50,46.315,50,50h6.667c0,3.686-2.985,6.666-6.667,6.666c-3.681,0-6.667-2.98-6.667-6.666
	c0-7.36,5.97-13.333,13.333-13.333C64.033,36.667,70,42.637,70,50c-0.003,11.041-8.955,19.997-20,19.997c-11.044,0-20-8.959-20-20
	C30,33.431,43.435,20,60,20c1.976,0,3.881,0.254,5.745,0.622v-0.005c-4.689-2.519-10.05-3.95-15.745-3.95
	c-2.208,0-4.366,0.22-6.455,0.63l-0.003,0.008c-11.973,6.023-20.208,18.373-20.208,32.692c0,14.723,11.94,26.666,26.667,26.666
	S76.663,64.725,76.667,50C76.663,38.958,67.715,30,56.667,30z"/>
</svg>
