<svg xmlns="http://www.w3.org/2000/svg" viewBox="0 0 512 512">
  <defs>
    <style>
      .cls-1 {
        fill: #f6edff;
      }

      .cls-2 {
        fill: #fcf8ff;
      }

      .cls-3 {
        fill: #f0e1ff;
      }

      .cls-4 {
        fill: #ff4957;
      }

      .cls-5 {
        fill: #ff2a3a;
      }

      .cls-6 {
        fill: #ffb5ba;
      }

      .cls-7 {
        fill: #559aff;
      }

      .cls-8 {
        fill: #3285ff;
      }

      .cls-9 {
        fill: #99c2ff;
      }

      .cls-10 {
        fill: #c7deff;
      }
    </style>
  </defs>
  <title>E Commerce_512px</title>
  <g id="Stars_Magnifying_Glass" data-name="Stars &amp; Magnifying Glass">
    <g>
      <rect class="cls-1" x="21.33333" y="106.66667" width="469.33333" height="170.66667" rx="85.33325" ry="85.33325"/>
      <path class="cls-2" d="M106.66667,128h-.09636l-.03125.00016-.0651.00017-.03776.00016-.05925.00016-.03906.00016-.0599.00033-.0371.00032-.06641.00049-.02995.00017-.0957.00081-.01432.00016-.08334.00082-.0319.00032-.0625.00082-.03971.00048-.0586.00082-.03776.00049-.0625.001-.03385.00049-.07227.0013-.02474.00033-.0957.00179-.02148.00049-.07552.00146-.03191.00065-.0651.00147-.03581.00081-.06054.0013-.03776.001-.0599.00147-.03711.00081-.07292.00195-.02213.00065-.0957.00261-.02474.00081-.07227.00212-.03255.001-.0625.002-.03776.00114-.06055.002-.03646.0013-.06185.00212-.0345.00114-.08073.00293-.01432.00048-.09636.00359-.02734.001-.069.00277-.03321.0013-.06315.0026-.0358.00147-.0625.0026-.03321.00147-.06836.00293-.02864.0013c-.0638.00277-.1263.0057-.19011.00879l-.03385.00163-.0625.00293-.03906.00195-.05469.00277-.04232.00211-.056.00293-.03906.002-.06315.00341-.03125.00163-.09505.00521-.01172.00081-.08334.00456-.03385.00195-.0625.00375-.0345.00195-.06185.00374-.03711.00212-.05925.00374-.03581.00212-.0651.00407-.03125.00211-.0944.006-.01432.001-.08008.00521-.03386.00228-.06119.00423-.03907.00261-.05468.00374-.041.00293-.05859.00407-.03646.0026-.06511.00472-.02994.00228-.09245.00684-.02865.00211-.0664.00505-.03776.00293-.05664.00423-.04037.00325-.05534.00424-.04036.00325-.0586.00472-.0345.00277-.07227.00586-.02343.00195-.09375.00781-.02735.00244-.06706.00554-.03515.00309-.06055.00521-.03776.00342-.05534.00488-.04036.00358-.0599.00537-.0332.00309-.084.00749-.01041.001-.09375.00879-.0319.00309-.0612.0057-.04037.0039-.05468.00521-.03972.00391-.056.00537-.04036.00407-.05339.00537-.041.00407-.05794.00586-.06641.00667-.05925.00618-.03971.00407-.05338.00554-.043.00455-.05274.00554-.041.00439-.05469.00586-.03906.00423-.0625.00684-.03125.00342-.09115.01009-.0293.00325-.0651.00733-.03776.00423-.05469.00635-.04362.005-.04948.00554-.04492.00537-.04883.0057-.04427.0052-.05469.00635-.03841.00472-.08854.01058-.043.00521-.04948.006-.04687.00586-.04623.0057-.04622.00569-.04883.006-.04492.00569-.04753.006-.04492.0057-.056.00716-.03645.00472-.08985.01172-.03516.00456-.05729.00765-.04231.00553-.05013.00668-.04493.006-.04752.00651-.04558.006-.04687.00651-.04753.00635-.04557.00635-.082.01139-.04948.00684-.04753.00667-.04622.00667-.04818.00684-.04231.00586-.05013.00732-.043.00619-.04948.00716-.04167.006-.05013.00749-.04036.00586-.09766.01448-.03841.00586-.05143.00765-.04037.006-.05013.00765-.04232.00635-.05143.008-.03841.00586-.05208.00813-.03907.00619-.054.0083-.02474.00391-.11589.01822-.03255.00521-.05273.00847-.04037.00651-.05078.00813-.04036.00652-.04948.00813-.04493.00733-.04752.00781-.03841.00635c-.06185.01025-.1237.02051-.1849.03092l-.04427.00733-.05013.00862-.04036.00684-.05013.00862-.041.007-.05078.00879-.04232.00733-.04753.0083-.04427.00765-.11.01937-.02149.0039-.05664.01009-.03255.0057-.05534.00993-.03711.00667-.05208.00944-.03711.00684-.054.00976-.0358.00668-.05469.00992-.0306.0057-.12826.02376-.01367.00261-.05729.01074-.0319.006-.05729.01074-.03255.00635-.05664.01058-.03256.00635-.05924.01123-.02539.005-.06315.0122-.01563.0031-.13867.027-.01562.00293-.0612.01221-.02735.00537-.05989.01188-.02865.00586-.0612.01221-.02539.005-.0638.01286-.01823.00375c-.10026.02034-.20247.04117-.30273.06217l-.02344.00472-.0625.013-.02539.00537-.0625.013-.02409.00521-.0651.01367-.01563.00342c-.07747.01644-.151.03223-.22851.049l-.00912.00179-.06575.01433-.02279.005-.0612.01318-.02864.00652-.06055.01318-.02409.00521-.06445.01448-.01433.0031c-.07747.01725-.15625.03483-.23372.05224l-.00325.00082-.07032.016-.01758.00406-.067.0153-.02018.00456-.06511.015-.02083.00472c-.10091.02343-.20573.04785-.30729.07161l-.01107.00277-.06966.01644-.01628.00374-.06641.01595-.02213.00537-.0651.01546-.01758.00424c-.10091.02441-.20573.04964-.30664.07454l-.01237.00293-.06576.01628-.02213.00553-.06446.016-.02018.005-.06641.01661-.01432.00341c-.10417.02621-.20638.05193-.30989.07846l-.00977.00244-.07161.01855-.013.00326-.071.01823-.01432.00374-.07162.01855-.00586.00147c-.08007.02083-.1582.04134-.23828.0625l-.00195.00049-.06771.01806-.01953.005-.06445.01725-.02084.00554-.06575.01774-.01628.00439L90,130.20036l-.00521.00146c-.10286.02783-.20768.05632-.31055.0848l-.015.00407-.069.019-.01432.00391-.071.01986-.00911.0026q-.19824.05493-.39518.11133l-.00586.00179-.07357.021-.01107.00326-.07487.02132-.0013.00049c-.13477.0389-.26628.07731-.40039.117l-.00326.001-.07812.02311-.0026.00082c-.349.10368-.69532.2098-1.04167.31933h-.00065a64.31719,64.31719,0,0,0-38.62175,33.72038l-.0013.00391c-.01237.0249-.02213.04622-.03385.07129l-.00261.00472c-.05729.12174-.11588.24723-.17252.3693l-.002.00439-.0319.06771-.00521.01107-.02994.06592-.00521.01139q-.084.18115-.166.36279l-.00456.01026c-.00976.02051-.02018.04329-.02929.0638l-.00781.01709-.028.06217-.00651.015-.02865.0638-.00585.01237c-.02995.06771-.0612.13753-.09115.2054l-.00651.01433c-.00781.01741-.01628.03564-.02344.05306l-.01367.03011-.02279.05159-.01237.02881-.02343.05257-.01107.026-.02539.05746-.00651.014c-.02735.06331-.05664.12972-.084.19319l-.01237.02849-.02213.05127-.013.03011-.02084.04915-.01562.03532-.02018.04769-.01368.03174-.02213.05127-.00977.02392c-.01953.0446-.03711.08724-.056.13184l-.00065.00065-.02213.0529-.013.03011-.02019.04834-.015.03515-.01953.04753-.01563.03678-.01823.04378-.01822.04248-.01693.04167c-.00651.01514-.01367.0319-.01953.047l-.02539.06055-.02214.0542-.01562.03808c-.00717.01693-.013.03027-.01954.047l-.01627.0389-.01758.04378-.01693.04118-.01888.04557-.015.03744-.02149.05273-.01237.03044-.03059.07519-.01172.02995c-.00847.02067-.01693.04069-.02474.06152l-.01433.03549-.02018.0498-.01432.035c-.00651.01693-.013.0337-.02018.05062l-.01433.036-.01953.04981-.01367.03467-.02148.0542-.01237.03125-.03321.08431-.00325.007-.02995.07731-.01107.02751c-.00716.01888-.015.03972-.02278.0586l-.01172.02962-.02214.05761-.01107.028c-.00846.02279-.01627.043-.02539.06575l-.00716.01888-.03255.08513-.00065.00065c-.02214.05876-.04492.11833-.06771.17741l-.00651.01758c-.00911.02278-.01758.04655-.02669.06933l-.00781.02116-.0254.06787-.00781.02-.02864.0765-.00391.00911c-.0332.08969-.06706.17937-.10026.269l-.00391.01058-.02864.07812-.00521.01432-.02734.07439-.00586.01562-.03125.08561v.00033c-.03386.092-.06641.18229-.09961.27441l-.00131.00456-.0319.08708-.0013.00423-.0319.08887-.00065.00195a63.33574,63.33574,0,0,0-1.91927,6.44808,21.33352,21.33352,0,0,0,41.487,9.96517,21.54674,21.54674,0,0,1,20.74284-16.31608h0A21.33335,21.33335,0,0,0,106.70117,128Z"/>
      <path class="cls-3" d="M490.66536,191.51432v-.13151l-.0013-.01953v-.125c0-.02213-.0013-.043-.0013-.0664v-.00131q-.00781-.84375-.03255-1.68359c0-.01432,0-.02865-.0013-.043v-.03516l-.01953-.57291v-.00261c-.00521-.14843-.01172-.29817-.01693-.44661a10.42925,10.42925,0,0,0-10.44141-9.83333c-.13151,0-.263.0013-.39453.00651a10.90407,10.90407,0,0,0-10.46615,11.05338l.043,2.38672a64.07249,64.07249,0,0,1-64,64H96a10.66667,10.66667,0,1,0,0,21.33333H405.33333A85.33339,85.33339,0,0,0,490.66667,192v-.40885C490.66536,191.56641,490.66536,191.54036,490.66536,191.51432Z"/>
      <path class="cls-4" d="M427.79392,157.27744l0,0a27.12089,27.12089,0,0,0-38.355-.00027l-4.52019,4.5202-4.52047-4.52048a27.12088,27.12088,0,0,0-38.35471,0l-.00042.00042a27.12088,27.12088,0,0,0,.00017,38.35488l36.6906,36.68994a8.74667,8.74667,0,0,0,12.3696-.00005l36.69017-36.69017A27.12087,27.12087,0,0,0,427.79392,157.27744Z"/>
      <path class="cls-4" d="M170.74042,157.27744l0,0a27.12088,27.12088,0,0,0-38.355-.00027l-4.5202,4.5202-4.52047-4.52048a27.12088,27.12088,0,0,0-38.35471,0l-.00042.00042a27.12088,27.12088,0,0,0,.00018,38.35488l36.69059,36.68994A8.74667,8.74667,0,0,0,134.05,232.322l36.69017-36.69017A27.12087,27.12087,0,0,0,170.74042,157.27744Z"/>
      <path class="cls-4" d="M299.26717,157.27744l0,0a27.12088,27.12088,0,0,0-38.355-.00027l-4.5202,4.5202-4.52047-4.52048a27.12086,27.12086,0,0,0-38.3547,0l-.00042.00042a27.12087,27.12087,0,0,0,.00017,38.35488l36.6906,36.68994a8.74667,8.74667,0,0,0,12.3696-.00005l36.69016-36.69017A27.12086,27.12086,0,0,0,299.26717,157.27744Z"/>
      <path class="cls-5" d="M132.38542,157.27734l-4.52084,4.51954-4.51953-4.52084a26.70857,26.70857,0,0,0-17.08463-7.53646L96,160a15.08494,15.08494,0,1,0,21.33333,21.33333l6.2487-6.24869A15.08494,15.08494,0,0,1,144.91536,196.418L117.33333,224a14.37248,14.37248,0,0,0-1.58593,2.388l5.93359,5.93359a8.746,8.746,0,0,0,12.36849,0l36.6901-36.6901a27.12049,27.12049,0,1,0-38.35416-38.35417Z"/>
      <path class="cls-5" d="M260.91175,157.27734l-4.52084,4.51954-4.51953-4.52084a26.70857,26.70857,0,0,0-17.08463-7.53646L224.52633,160a15.08494,15.08494,0,0,0,21.33333,21.33333l6.2487-6.24869A15.08495,15.08495,0,0,1,273.4417,196.418L245.85966,224a14.3731,14.3731,0,0,0-1.58593,2.388l5.93359,5.93359a8.746,8.746,0,0,0,12.36849,0l36.6901-36.6901a27.12049,27.12049,0,1,0-38.35416-38.35417Z"/>
      <path class="cls-5" d="M389.4385,157.27734l-4.52083,4.51954-4.51953-4.52084a26.70862,26.70862,0,0,0-17.08464-7.53646L353.05308,160a15.08495,15.08495,0,1,0,21.33334,21.33333l6.2487-6.24869A15.08494,15.08494,0,0,1,401.96845,196.418L374.38642,224a14.37254,14.37254,0,0,0-1.58594,2.388l5.93359,5.93359a8.746,8.746,0,0,0,12.36849,0l36.69011-36.6901a27.12049,27.12049,0,1,0-38.35417-38.35417Z"/>
      <circle class="cls-6" cx="352" cy="181.33333" r="10.66667"/>
      <circle class="cls-6" cx="224" cy="181.33333" r="10.66667"/>
      <circle class="cls-6" cx="96" cy="181.33333" r="10.66667"/>
      <g>
        <circle class="cls-7" cx="384" cy="320" r="106.66667"/>
        <path class="cls-8" d="M384,426.66667A106.66684,106.66684,0,0,0,490.66667,320v-.14876c0-.03679,0-.08106-.00065-.11768V319.583c0-.03955-.00066-.07634-.00066-.11605v-.02686c-.00065-.03662-.00065-.071-.00065-.10774v-.01481c-.00065-.03956-.00065-.07862-.0013-.11817v-.029c0-.03955-.00065-.08008-.00065-.11963v-.00293c-.00065-.03955-.00065-.07764-.0013-.11719l-.00065-.02929c0-.03662-.00065-.08024-.00065-.117l-.00065-.01806c0-.03386-.00066-.0752-.00131-.109V318.637l-.002-.11946v-.02425c-.00065-.03386-.0013-.07357-.0013-.10743l-.00065-.01741-.002-.118v-.02735l-.00195-.11881-.00065-.00944-.002-.112v-.02718c-.00131-.03939-.002-.077-.00261-.11637l-.00065-.02458-.00195-.10254-.00065-.02311c-.00065-.03955-.00131-.0778-.00261-.11719l-.00065-.02686-.00195-.10856-.00065-.013c-.00065-.03939-.002-.07942-.00261-.11881l-.00065-.02653c-.0013-.03939-.002-.08008-.00325-.11947v-.0096c-.0013-.03646-.002-.07552-.00326-.11214l-.00065-.02637c-.0013-.03939-.0026-.07959-.00325-.11882l-.00066-.01709c-.0013-.03645-.00195-.07015-.00325-.1066l-.00065-.02393c-.0013-.03939-.002-.07731-.00326-.1167l-.0013-.02555c-.00065-.03662-.00195-.07308-.00325-.10954l-.00065-.01335c-.00131-.03922-.002-.07714-.00326-.11637l-.0013-.03076-.00391-.11556-.00065-.01579-.00391-.10579-.00065-.02751c-.0013-.03923-.00325-.07666-.00455-.11589l-.00066-.02343-.0039-.10612-.0013-.01888c-.00131-.03923-.00261-.07683-.00456-.11605l-.00065-.03044c-.002-.03646-.00326-.07389-.00456-.11035l-.00065-.00765c-.0013-.03922-.00326-.07943-.00456-.11865l-.0013-.028c-.00195-.03906-.00325-.07893-.00521-.11816l-.00065-.00993-.00456-.11344-.0013-.02263c-.002-.03922-.0039-.08089-.00521-.12011l-.00065-.01563-.00586-.11409-.00065-.01367c-.00195-.04183-.00325-.07894-.00586-.12077l-.00065-.022-.00586-.11686v-.006c-.0026-.042-.00456-.08138-.00651-.12337l-.00065-.01856c-.0026-.042-.00456-.08154-.00651-.12337l-.00065-.007-.00586-.11507-.0013-.02214c-.002-.03906-.00391-.07812-.00651-.11718l-.0013-.02409-.00586-.10335-.00066-.02116c-.0026-.03907-.00455-.077-.00716-.11605l-.0013-.027-.00651-.11263-.00065-.00732c-.00195-.03907-.00391-.07487-.00651-.11394l-.00195-.03418c-.002-.03629-.00456-.07584-.00717-.11214l-.0013-.02213-.00586-.09961-.00195-.02849c-.0026-.03906-.00456-.077-.00716-.116l-.0013-.02051c-.002-.03353-.00456-.07389-.00716-.10742l-.00066-.01774-.00781-.116-.002-.02783c-.00261-.0363-.00521-.07487-.00716-.11117l-.0013-.01318c-.002-.03614-.00456-.07552-.00717-.11166l-.002-.02946-.00846-.11523-.00131-.0179c-.00195-.03337-.00455-.06983-.00716-.10319l-.00195-.02621-.00781-.11344-.002-.028-.00781-.105-.0013-.01514c-.0026-.04166-.00521-.076-.00846-.11767l-.002-.02539-.01823-.23877-.00195-.02458c-.0026-.0389-.00586-.07829-.00911-.11719l-.00131-.01822-.00846-.10336-.00195-.0262c-.00326-.03874-.00586-.07715-.00912-.11589l-.002-.02083c-.0026-.036-.00651-.07764-.00911-.11361l-.00066-.00846-.00976-.11979-.002-.02344c-.00391-.04167-.00651-.07715-.01042-.11865l-.00065-.00879-.00977-.11377-.00195-.02181c-.00326-.03874-.00651-.08008-.01042-.11882l-.0013-.015c-.00325-.03874-.00586-.07341-.00977-.11214l-.0013-.01514-.01041-.119-.002-.02229-.01041-.11361-.00065-.00733-.01107-.12142-.002-.02c-.00781-.08285-.015-.16228-.02278-.24512l-.002-.01612-.01171-.12386-.00065-.00651c-.00326-.03873-.00782-.07991-.01107-.11849l-.0013-.01432-.01237-.12239-.00131-.013-.01172-.12174-.00065-.00358c-.0039-.0415-.00846-.08285-.01237-.12419l-.0013-.01416c-.00846-.08268-.01758-.16813-.026-.25065l-.0013-.01188c-.00391-.04134-.00847-.08317-.013-.12435l-.00065-.00911c-.00456-.04118-.00847-.08171-.013-.123l-.00066-.00423c-.0039-.04134-.00846-.08366-.013-.125l-.0013-.01384c-.00911-.08252-.01758-.16243-.02669-.24495l-.00261-.02214c-.00911-.08252-.01757-.16113-.02734-.24365l-.0013-.01481c-.00456-.04134-.00977-.08333-.01432-.12451l-.00066-.00472c-.00455-.04118-.00911-.083-.01432-.12419l-.00065-.00651c-.00456-.04118-.00911-.08284-.01432-.124l-.0013-.01351-.0293-.24609-.002-.01807c-.00456-.04118-.00912-.08008-.01433-.12126l-.00065-.00667c-.00456-.03825-.00976-.07747-.01432-.11589l-.002-.01757-.01433-.1198-.00195-.01416-.01432-.11718-.00131-.00684c-.00455-.041-.00976-.07975-.015-.12077l-.002-.01953-.03125-.24528-.0013-.01253-.01628-.12451v-.00277c-.00586-.041-.01042-.07813-.01563-.11914l-.002-.01595-.01627-.12077-.00131-.01253c-.00521-.03825-.01041-.08057-.01562-.11882l-.00065-.00569c-.00586-.041-.01172-.08383-.01693-.12484l-.0013-.01091c-.01107-.08186-.02279-.1665-.03386-.24837l-.00195-.01351c-.00521-.04085-.01107-.08252-.01693-.12337l-.00065-.00488c-.00521-.041-.01041-.07992-.01627-.12077l-.00131-.01025-.01757-.12289-.00131-.01188c-.01171-.08187-.02343-.16537-.03515-.24691l-.002-.01465c-.01171-.08154-.02343-.16455-.0358-.24609l-.002-.01351c-.01171-.08431-.02408-.16732-.03645-.25163l-.00066-.005-.01888-.12663-.00065-.00537c-.013-.08692-.02539-.16781-.03841-.25472l-.0013-.0057c-.013-.08691-.02539-.16764-.03841-.25439l-.0013-.00537-.01953-.12777v-.00033c-.00652-.04345-.013-.08545-.02019-.1289v-.00163c-.00716-.04329-.013-.08236-.02018-.12565l-.0013-.01009c-.013-.08122-.026-.16488-.03906-.2461l-.00261-.01578c-.013-.08122-.02669-.16488-.03971-.2461l-.002-.00976c-.02084-.12712-.04167-.257-.06316-.384l-.00065-.00293-.04231-.2544-.00131-.00635c-.03645-.216-.07291-.4261-.11067-.6416l-.00131-.006c-.015-.08626-.02929-.16829-.04492-.25439v-.001c-.01562-.0861-.02995-.168-.04557-.25407l-.0013-.00635c-.0931-.51644-.18946-1.0275-.29037-1.54134l-.00065-.0026a106.84173,106.84173,0,0,0-68.89583-79.8737,21.33335,21.33335,0,0,0-14.30664,40.19661A64.018,64.018,0,0,1,384,384h0a63.95285,63.95285,0,0,1-56.5957-34.07259,21.33315,21.33315,0,1,0-37.68881,19.99919A106.72108,106.72108,0,0,0,298.015,383.134l.00326.00358c.06575.08968.12825.17481.19466.26416l.00326.00423c.04362.05957.08658.1167.13086.17627l.00065.00082.0638.0861.0026.0039c.04427.05941.08659.1154.13086.17465l.00326.00472c.04427.0594.08593.11474.13086.174l.00325.00423c.01888.026.04167.05631.0612.08219l.00521.00668c.04166.0555.08659.11491.1289.17041l.00717.00911.05989.07959.00456.006.0651.08578.00261.00325.05794.07666.013.01693c.02148.02767.04037.0529.0612.0804l.00065.00065c.02083.02751.04036.05306.06185.08057l.015.02018.04948.06413.013.01709.0599.07845.01562.02.04493.05811.02213.0288.04492.0586.01433.01855.05859.07585.01888.02458.043.05566.02018.02621c.02018.02555.04037.05143.0599.077l.0039.00488.05469.0708.02148.02751.04493.05746.01627.02115.05925.07553.01758.02294.04427.05632.01953.02506.05729.07308.00391.00472c.02018.02556.04036.05192.06054.07732l.01888.02425.04362.05517.01953.02474c.02019.02539.03841.04834.058.07373l.01888.0236c.01432.01807.028.03581.043.05388l.02408.03108.04037.05062.02278.029.05274.06608.02669.034c.01172.01449.02539.03141.03646.0459l.02539.0319c.01758.02165.03451.04281.05143.06462l.0293.03613.0345.04329.0293.0363.0319.04069c.015.01823.02735.03336.04167.05159l.041.051.02929.03646.0319.04.02865.03531.03841.048c.015.01823.03255.03971.04688.05794l.028.03418.03646.04574.02148.0262.03711.0459.00586.00732.08138.10043.02214.027.03841.04736.01627.02c.0254.03109.05209.06331.07683.0944l.01367.01644.03971.04883.01953.02376.12956.15788.01693.02083c.013.0153.02995.036.04232.05143l.01367.01628.07877.09554.015.01807.03906.04752.01953.02393.03972.048.01106.01286c.02735.03337.054.06559.082.0988l.015.01888.043.05094.01172.01432.13737.1652.01432.01726c.06445.07682.13086.15608.19531.23274l.01172.014.14518.1722.00391.005c.01758.02034.03125.03629.04818.05664l.00781.00928a106.78993,106.78993,0,0,0,49.13737,32.835l.00065.00032c.18229.05794.362.11442.54427.17139l.00456.00146c.10481.03256.20508.06381.30989.096l.00326.001c.54883.16927,1.09635.33333,1.64844.49381l.0013.00049c.18424.05355.36653.106.55078.15853l.0026.00065.07618.02165.00846.00244c.07552.02148.15169.04281.22721.06429l.00781.00212c.10547.02962.20638.05794.3125.0874l.00131.00032c.07552.02116.15494.04314.23112.06413l.01041.00277c.10547.02913.20443.05631.31055.08512l.00651.00179.22786.06185.01042.00261c.10222.02767.20313.05468.306.08219l.01823.00488.21289.05648.02344.006.06706.01774.01953.00521.13932.03646.00651.00179.06445.01677.0293.00764.06315.01644.01367.00342c.043.01123.08594.02246.12956.03353l.026.00684.0612.01578.03125.008.20638.0529.02279.00586.067.01692.01823.00472.13347.03386.01432.00358.07031.01774.01758.00439.2207.05518.015.00374.07031.01742.01628.00407.14388.03564.00455.00114.06706.01644.02669.00667c.07032.01726.13412.03272.20443.04981l.0306.00765.0638.0153.02735.00667c.07031.01709.14.03385.21028.05078l.02214.00521.06771.01611.01562.00375.1237.02962.03255.00765.0599.01416.03125.00749c.067.01578.13476.0319.20247.04752l.0332.00781.06185.01449.02474.00586.12435.02881.02083.00488.06185.01432.03581.0083.20182.04623.02995.00683.06055.01384.03515.008.10612.02409.03451.00782.05729.01285.03906.00879.056.0127.04167.00944.09831.02181.03646.00814.06054.01334.03321.00749.10872.02392.0319.00717.05664.01253.041.00879.056.0122.04492.00993.08919.01953.04362.00928.056.01221.03971.00863.09961.02132.03907.00846.05989.01286.03255.007.0625.01334.03.00619.11.02344.0358.00748.058.01221.03776.008.05729.012.0306.00651.10807.02246.041.00846.054.01123.04753.00993.0625.01286.07292.015.04622.00944.05273.0109.05079.01025.05273.01091.07878.01579.05013.01025.04948.00993.05273.01074.04753.00944.08528.01709.04948.00993.05013.00993.04753.00944.0612.012.07031.01384.05469.0109.05143.00993.04622.00911.05209.0101.08007.01578.05534.01058.04883.00944.05013.00977.0599.01139.04687.00895.07878.01514.04687.00895.056.01058.04427.00847.08073.01513.05534.01042.04948.00928.05143.00976.05013.00928.06576.01221.07226.01334.043.00814.05534.01009.04688.00863.0638.01172.06966.01269.05273.0096.054.00977.04492.00814.05143.00928.08594.01546.04753.00862.05534.00977.04687.00846.05013.00879.0905.01612.04427.00765.05143.00911.05078.009.05013.00879.07227.01253.0651.01123.04622.00814.05209.009.054.00928.06836.01172.06446.01091.04948.00846.05208.00895.04687.00781.06576.01123.069.01156.05469.00911.04687.00782.05925.00976.03971.00668.0918.01513.04427.00733.054.009.05013.00814.06771.0109.05664.00928.06315.01025.04753.00765.05794.00944.04232.00668.08985.01448.04687.00733.054.00862.04687.00733.0625.00992.05729.009.07227.01123.04427.00683.05794.00912.043.00667.0931.01432.03451.00521.067.01026.04362.00667.0599.00911.05013.00749.08008.01221.05013.00748.05078.00765.05078.00749.06055.00912.07161.01057.056.00814.04753.007.05664.0083.04557.00668.08984.013.04427.00634.05665.00814.04687.00684.06185.00879.07226.01025.05469.00781.05209.00733.054.00765.043.006.0931.013.041.00553.06119.00863.04493.006.06315.00879.05013.00684.08007.0109.04362.00586.0599.00814.043.00586.0944.01253.03255.0044.06706.009.04492.006.06576.00863.0345.00455.0957.01237.03907.005.0638.0083.04167.00553.08138.01042.04036.00505.07682.00976.03776.00488.06771.00847.03711.00472.09505.01188.03581.00456.06771.0083.041.005.07942.00977.02735.00342.09244.01123.03516.00423.07161.00863.03581.00423.09571.01155.0319.00375.07356.00879.03581.00423.07422.00862.0319.00375.0957.01107.03711.00439.06836.00781.03711.00423.09831.01123.02409.00277.07812.00879.03972.00456.07031.00781.0332.00358.09505.01058.041.00456.0651.00716.03907.00423.09244.00993.02149.00244.08724.00928.03711.00407.06966.00732.03646.00391.097.01025.0319.00326.07292.00765.03646.00374.08463.00863.01888.002.10222.01042.02995.00309.08007.008.0267.00277.10351.01025.01888.00179.08659.00863.03255.00326.07813.00765.028.0026.09961.0096.0306.00293.07748.00733.0319.00309.10221.0096.015.00147.08724.008.03646.00342.07748.00716.028.00261.09961.009.0319.00293.07552.00667.03255.00293.08659.00765.03386.00309.08463.00733.03776.00325.07162.00635.0332.00277.09961.00846.02995.0026.07487.00619.03776.00325.08659.00717.01562.0013.10091.0083.03646.00293.071.00569.03646.00293.09766.00782.0319.0026.07357.0057.03711.00293.07682.00586.0293.00228.10156.00781.02865.00211.07421.0057.03842.00277.09309.007.028.002.08138.006.04167.00309.0651.00472.03841.00261.09505.00683.041.00293.06771.00456.03906.00277.07617.00521.03972.00276.08593.00586.03907.00261.069.00455.03841.00245.09961.00667.02343.00146.08269.00521.0332.00212.08073.00521.02734.00162.09636.006.043.0026.0651.00407.03841.00228.099.006.028.00163.07813.00455.03711.00212.07682.0044.02865.00179.10156.00569.03125.00179.07487.00407.03711.00212.09831.00537.01172.00049.09375.005.03906.00212.07552.0039.02864.00147.10482.00537.02214.00114.08268.00407.03451.00179.08723.00423.01888.001.10417.00488.0293.00147.07877.00358.03125.00146.10352.00472.02083.001.08464.00374.03646.00163.08008.00342.02473.00114.10352.00439.0293.00114.07877.00325.03386.00147.10221.00407.015.00065.09179.00358.03125.00114.084.00309.02474.001.10351.0039.0306.001.07422.00277.03841.0013.08984.00309.01954.00065.0983.00326.03256.00114.08268.0026.02474.00082.10416.00325.02735.00082.08268.0026.03125.00081.0918.00277.01432.00049.10417.00277.03385.001.07552.00212.03386.00081.10546.00277.00782.00016.0983.00244.02995.00065.08594.00212.02344.00049.10416.00244.02865.00049.082.00179.0293.00065.10677.00212.0039.00016.10287.002.0319.00065.07617.0013.03451.00066.10091.00162.02864.00049.08073.0013.03321.00049.10091.00163h.0039l.10743.00146.028.00033.08594.00114.02539.00032.10547.00114.02278.00033.08594.00081.03125.00033.08854.00081.02019.00016.10546.001.028.00016.08268.00066.0293.00016.10677.00065h.01107l.0944.00049.03515.00016.084.00033h.02213l.10678.00032.02473.00016h.08464l.0306.00017Z"/>
        <path class="cls-9" d="M384,234.66667A85.33338,85.33338,0,0,0,298.66667,320v.21533l.00065.02865v.14583l.00065.04085v.07276l.00065.03027v.07552l.00065.03353v.0363l.00065.03776v.03353l.00065.04v.03125l.00065.0363v.03727l.00065.03321v.03645c.00066.02393.00066.04753.00066.07146l.00065.01562c0,.01937,0,.03711.00065.05632v.02913l.00065.03939.00065.03711.00065.03662v.03043l.00065.04151.00065.03076.00065.04036.00066.0337.00065.036.00065.03564.00065.03776.00065.0332.00065.0376.00065.03321.00065.04215.00065.029.00065.0389.00066.03467.00065.03613.00065.03418.0013.04346.00065.02783.0013.06982.00065.03191.00131.03906.00065.03548.00065.0363.0013.03141.00065.0402.0013.035.00065.035.00131.03922.00065.02962.0013.04249.00065.02978.00065.03857.0013.03239.00131.04086.00065.029.0013.04069.00065.03011.0013.04118.0013.03239.00131.03694.00065.03321.0013.03971.00065.02653.00195.04313.00065.01937c.00066.03141.002.06413.00326.09554l.00065.02507.0013.043.00131.02588.0013.04151.0013.03174.0013.03613.0013.034.00131.03564.0013.03743.0013.03451.0013.03369.0013.0389.00131.03206.002.04086.00065.02523.00195.04589.00131.02686.002.04248.00065.02751.00195.043.0013.03027.002.03955.0013.03239.002.03825.00131.03369c.00195.05111.00455.10433.00716.15543l.00065.01937.0026.048.00065.02164.00261.047.00065.02442.0026.04069.0013.03141.002.03825.0013.03288.00195.03645.002.034.00195.03874.0013.03092.00195.03907.002.02978.00195.04346.0013.02327.00261.04639.0013.02018.0026.05306v.0013c.00586.10791.01237.21631.01823.32406l.0013.01823.00326.05143.00065.01709.0026.04655.002.02653.0026.04427.0013.02295.00326.04834.0013.02279.00261.04378.002.02881.0026.03906.002.03369.0026.03809.0013.02571.00326.04753.0013.0179c.00065.01693.002.034.00325.05111l.00131.01709c.00065.01709.00195.03646.00325.05338l.00065.00489c.00521.0848.01107.1735.01758.2583l.00065.01009.00391.05827.00065.01009.00391.05648.0013.01285c.0013.0197.00195.03451.0039.05437l.00065.01611.00391.04867.0013.02262.00391.04818.0013.01985.00391.05078.0013.016c.00065.01709.0026.0376.00391.05469l.00065.01384.0039.05175.002.02247.0039.04947.00065.01091c.01237.15511.02409.30631.03711.46126v.00489l.00586.06526v.0013l.00521.06446.00065.00472.00521.0625.00065.006.00456.05941.0013.0122.00521.05827v.00586l.00586.06266v.00456a84.80252,84.80252,0,0,0,7.4082,28.03272A21.33326,21.33326,0,0,0,345.16927,337.731,42.264,42.264,0,0,1,341.33333,320,42.71493,42.71493,0,0,1,384,277.33333h0l1.47331.02458c.12174.002.24088.00293.362.00293A21.77142,21.77142,0,0,0,407.515,256.39111a20.90371,20.90371,0,0,0-19.65364-21.63867q-.48145-.02148-.96485-.0376h-.0013q-1.21386-.04027-2.4362-.047h-.01237l-.07226-.00033h-.01693l-.08528-.00033h0l-.07943-.00032h-.02735l-.05859-.00016H384Z"/>
        <path class="cls-10" d="M298.66667,320v.071c.00048.50065.0052,1.002.01416,1.5a21.1596,21.1596,0,0,0,21.46891,20.64909,21.50861,21.50861,0,0,0,21.18815-21.474c0-.04882-.00016-.0983-.00049-.14713l-.00407-.599a21.50735,21.50735,0,0,0-21.477-21.33268,21.16024,21.16024,0,0,0-21.1888,20.9414c-.00049.12956-.00081.26172-.00081.39128Z"/>
        <path class="cls-1" d="M345.75161,254.16991,352,247.92149a45.25478,45.25478,0,0,1,63.99994,0l.00006.00006a45.25478,45.25478,0,0,1,0,63.99994l-27.58176,27.58176a15.08493,15.08493,0,0,1-21.33331,0l0,0a15.08493,15.08493,0,0,1,0-21.33331l27.58174-27.58173a15.08494,15.08494,0,0,0,0-21.33332l0,0a15.08494,15.08494,0,0,0-21.33332,0l-6.2484,6.24841a15.08493,15.08493,0,0,1-21.33331,0l0,0A15.08493,15.08493,0,0,1,345.75161,254.16991Z"/>
        <circle class="cls-1" cx="384" cy="384" r="21.33333"/>
      </g>
    </g>
  </g>
</svg>
