<svg xmlns="http://www.w3.org/2000/svg" viewBox="0 0 512 512">
  <defs>
    <style>
      .cls-1 {
        fill: #e73444;
      }

      .cls-2 {
        fill: #d7e816;
      }

      .cls-3 {
        fill: #b3d000;
      }

      .cls-4 {
        fill: #ff8089;
      }

      .cls-5 {
        fill: #ff6872;
      }

      .cls-6 {
        fill: #ff6e78;
      }

      .cls-7 {
        fill: #ff4957;
      }

      .cls-8 {
        fill: #ffa6ad;
      }

      .cls-9 {
        fill: #3f60c4;
      }

      .cls-10 {
        fill: #f6edff;
      }

      .cls-11 {
        fill: #559aff;
      }

      .cls-12 {
        fill: #267eff;
      }

      .cls-13 {
        fill: #eaf388;
      }

      .cls-14 {
        fill: #ff7d86;
      }

      .cls-15 {
        fill: #a3c8ff;
      }
    </style>
  </defs>
  <title>E Commerce_512px</title>
  <g id="Customer_Services" data-name="Customer Services">
    <g>
      <g>
        <path class="cls-1" d="M277.3334,341.33333H128V192H341.33333v85.3334A63.99992,63.99992,0,0,1,277.3334,341.33333Z"/>
        <path class="cls-2" d="M256,298.66667,84.214,345.5174a85.33332,85.33332,0,0,0-62.88065,82.32651V448A42.66667,42.66667,0,0,0,64,490.66667H448A42.66667,42.66667,0,0,0,490.66667,448V427.84391A85.33332,85.33332,0,0,0,427.786,345.5174Z"/>
        <path class="cls-3" d="M427.78646,345.51693,258.87891,299.45182C221.35547,303.39714,192,334.76432,192,373.33333A74.667,74.667,0,0,0,266.66667,448h74.66666a21.33334,21.33334,0,1,1,0,42.66667H448A42.66712,42.66712,0,0,0,490.66667,448V427.84375A85.333,85.333,0,0,0,427.78646,345.51693Z"/>
        <path class="cls-4" d="M149.67578,341.33333a106.32477,106.32477,0,1,0,212.64844,0l-.04427-13.681L256,298.66667,149.72,327.65234Z"/>
        <path class="cls-5" d="M192,330.66667a31.99992,31.99992,0,0,0,32,32h74.66667a21.33333,21.33333,0,1,1,0,42.66666h-32a31.56581,31.56581,0,0,0-30.668,40.64584A105.747,105.747,0,0,0,362.32422,341.33333l-.04427-13.681L256,298.66667l-59.71745,16.28645A31.657,31.657,0,0,0,192,330.66667Z"/>
        <rect class="cls-4" x="213.33333" y="234.66667" width="85.33333" height="149.33333"/>
        <path class="cls-6" d="M213.33333,310.30339v50.40494A31.70128,31.70128,0,0,0,224,362.66667h74.66667V310.30339L256,298.66667Z"/>
        <path class="cls-7" d="M383.99991,362.66667h.00018a85.33324,85.33324,0,0,0,85.33324-85.33325v-.00011A21.33331,21.33331,0,0,0,448,256h-.00008A63.99994,63.99994,0,0,1,384,192.00006V192H298.66667v85.33342A85.33324,85.33324,0,0,0,383.99991,362.66667Z"/>
        <rect class="cls-4" x="170.66667" y="85.33333" width="170.66667" height="234.66658" rx="85.33325" ry="85.33325"/>
        <path class="cls-8" d="M170.66667,170.66667v64a84.82563,84.82563,0,0,0,27.58854,62.48047,84.44414,84.44414,0,0,0,100.41146-83.81381v-64a84.82449,84.82449,0,0,0-27.58724-62.48047,84.44537,84.44537,0,0,0-100.41276,83.81381Z"/>
        <circle class="cls-9" cx="288" cy="202.66667" r="10.66667"/>
        <circle class="cls-9" cx="224" cy="202.66667" r="10.66667"/>
        <rect class="cls-10" x="234.66667" y="256" width="42.66667" height="21.33333" rx="10.66666" ry="10.66666"/>
        <rect class="cls-4" x="234.66667" y="213.33333" width="42.66667" height="21.33333" rx="10.66666" ry="10.66666"/>
        <path class="cls-1" d="M259.9368,21.39292c70.05568,2.10232,124.06346,63.22078,124.06332,133.308L384,192a21.33333,21.33333,0,0,1-21.33333,21.33329H341.33325A85.33324,85.33324,0,0,1,256,128.00009V128a85.33255,85.33255,0,0,0-85.33333,85.33333H128v-64A128.00117,128.00117,0,0,1,259.9368,21.39292Z"/>
        <path class="cls-7" d="M170.66667,192V149.33333a42.6671,42.6671,0,0,1,42.66666-42.66666A42.6141,42.6141,0,0,0,228.901,24.36328,127.93323,127.93323,0,0,0,128,149.33333V192a21.33334,21.33334,0,0,0,42.66667,0Z"/>
      </g>
      <path class="cls-11" d="M192,21.33333H64A42.66629,42.66629,0,0,0,21.33333,64v85.33333A42.66711,42.66711,0,0,0,64,192h64l15.68229,25.71224A24.795,24.795,0,0,0,192,209.87109V192a42.66711,42.66711,0,0,0,42.66667-42.66667V64A42.66629,42.66629,0,0,0,192,21.33333Z"/>
      <path class="cls-12" d="M215.9847,32.15348a10.667,10.667,0,0,0-7.98861,17.73063A21.29669,21.29669,0,0,1,213.33333,64v85.33333A21.35746,21.35746,0,0,1,192,170.66667,21.33355,21.33355,0,0,0,170.66667,192v17.87109a3.46149,3.46149,0,0,1-6.74545,1.09506,21.35958,21.35958,0,0,0-2.026-4.36247L150.835,188.46973a10.66657,10.66657,0,0,0-18.22,11.09651l11.06738,18.146h0A24.795,24.795,0,0,0,192,209.87109V192h0a42.66711,42.66711,0,0,0,42.66667-42.66667V63.91178l-.00033-.04476v-.06591l-.00032-.02849V63.735l-.00033-.03093-.00033-.03532-.00032-.03011-.00033-.03711v-.02929l-.00065-.03728-.00032-.029-.00033-.03694-.00032-.0306-.00066-.03662-.00032-.02832-.00065-.04069-.00033-.026-.001-.05v-.01579l-.00131-.06527-.00032-.0236-.001-.04329-.00065-.02458-.00065-.04134-.00065-.02572-.001-.04183-.00065-.02571-.001-.03858-.00065-.02995-.001-.03662-.001-.02962-.001-.03662-.00065-.02865-.0013-.03824-.00065-.02881-.0013-.036-.001-.02979-.0013-.03987-.00065-.02572-.00163-.04688-.00065-.01871-.00228-.06592-.00065-.01172-.00195-.0542-.001-.02392-.00163-.04167-.001-.02572-.00163-.041-.001-.02572-.00163-.0402-.0013-.02621-.00163-.03971-.0013-.02685-.00163-.04-.0013-.02507-.00195-.04069-.0013-.02685-.00163-.03858-.0013-.02734-.002-.03532-.00162-.03223-.002-.0376-.0013-.02571-.00293-.05648-.00065-.00944-.00358-.06527-.0013-.02343-.00228-.04118-.0013-.0267-.00261-.041-.0013-.02376-.00228-.04069-.00195-.02784L234.585,61.34l-.00163-.02963-.00228-.034-.00195-.03207-.00228-.03564-.00195-.028-.00228-.03759-.00195-.02865-.00261-.03792-.00195-.027-.0026-.04118-.00163-.02392-.00391-.05323-.00065-.01172-.00488-.06494-.00163-.023-.00325-.0428-.002-.02621-.00293-.03808-.00228-.03077-.0026-.03466-.00228-.0306-.0026-.03369-.00261-.03223-.00293-.03385-.00227-.02946-.00293-.03614-.00261-.02994-.00293-.036-.00228-.02832-.00325-.03646-.00228-.02946-.00326-.03581-.00227-.02881-.00359-.03792-.00227-.02751-.00586-.0638-.00033-.00342-.00553-.06152-.002-.0197-.00423-.04606-.00195-.02278-.00391-.04069-.0026-.02881-.00358-.03565-.00293-.03141-.00326-.03239-.00325-.03206-.00326-.033-.00325-.03272-.00293-.02946-.00358-.03629-.00293-.02767-.00358-.03614-.00326-.02913-.00358-.03483-.00293-.02979-.00391-.035-.00227-.021c-.00521-.04883-.01042-.09734-.016-.14616l-.00228-.02214-.00423-.0376-.00293-.02669-.00424-.03613-.00293-.028-.00423-.03613-.00325-.02881-.00391-.0332-.00358-.03125-.00423-.035-.00326-.0275-.00423-.0363-.00325-.0275-.00456-.03711-.00326-.02637-.00455-.03662-.00326-.02816-.00456-.03646-.00293-.02181-.01855-.14909-.00228-.01725-.00521-.03857-.00293-.02474-.00488-.03744-.00358-.027-.00488-.03727-.00358-.02506-.00489-.03776-.0039-.02751-.00489-.03646-.00325-.02506-.00554-.03907-.00325-.02457-.00521-.03874-.00358-.02425-.00521-.03857-.0039-.026-.00521-.03808-.00293-.02084-.00619-.04248-.0013-.0096c-.00781-.05517-.016-.11051-.02409-.16569l-.0013-.00944-.00684-.04476-.00293-.0192-.00618-.043-.00293-.0197-.00651-.04183-.00326-.02115-.00651-.043-.00293-.01953-.00651-.04135-.00325-.02246-.00651-.04118-.00326-.02083-.00651-.04134-.00325-.02051-.00716-.04394-.002-.01319-.00781-.04834-.002-.01139c-.00879-.05566-.01791-.111-.027-.1665l-.001-.0057-.00748-.04508-.00326-.01872-.00684-.04086-.00358-.02164-.00683-.04069-.00358-.02214-.00716-.04036-.00359-.02181-.00683-.04037-.00423-.02343-.00651-.03825-.00424-.02393-.00683-.03922-.00423-.02295-.00716-.04021-.00293-.01725-.00847-.04671-.00032-.0026c-.01075-.05974-.02116-.11849-.03223-.17806v-.00066l-.00911-.04931-.00228-.01253-.00814-.0433-.00391-.02034-.00716-.03874-.00456-.02376-.00748-.04086-.00391-.01985-.00814-.04346-.00325-.01693-.00879-.04524-.00326-.01677-.00846-.04378-.00358-.01872-.00879-.04476-.00195-.01155-.01009-.05079-.00066-.00325c-.02311-.118-.04687-.23519-.071-.35286l-.0013-.00554-.01074-.05241-.002-.00911-.01041-.0503-.00228-.01139-.01042-.049-.0026-.01221-.00977-.04769-.00325-.01464-.01042-.04834-.0013-.00684c-.029-.13607-.05925-.2736-.08952-.40918l-.00065-.00374-.01237-.05453-.0013-.006-.01205-.05322-.00162-.00733-.012-.05322-.00163-.00618-.012-.05323-.00163-.007c-.04525-.19645-.09147-.3916-.13932-.58707l-.00033-.001-.01432-.05778-.00033-.00146-.014-.05632-.001-.00456c-.05827-.23518-.11849-.46809-.18066-.70182l-.00033-.00114c-.06217-.23421-.1263-.46679-.19271-.69938v-.00033a42.4972,42.4972,0,0,0-6.00163-12.64225l-.00162-.00211q-.13428-.19287-.27084-.38444v-.00017l-.0306-.04264-.00488-.00716-.028-.03874-.00814-.01139-.02572-.03581-.01009-.01416-.02474-.03418-.01172-.01627-.02343-.03272-.0114-.01562-.02506-.03451-.00977-.01351-.02571-.03564-.00879-.01156-.02735-.0376-.00618-.00862-.08529-.11654-.01465-.01969-.01692-.02328-.01986-.02669-.0179-.02442-.01856-.0249-.01725-.02327-.01986-.02669-.01758-.02377-.0192-.02571-.01725-.02312-.01888-.02555-.01888-.02523-.01889-.02506-.01692-.02263-.02116-.02783-.01628-.02181-.02311-.0306-.013-.01741-.02637-.03483-.01139-.01514c-.03776-.05-.07552-.09945-.11361-.14925l-.00618-.0083-.0306-.03988-.01107-.01416-.02832-.03711-.00846-.01074-.0293-.03841-.00911-.01172-.0306-.03939-.00749-.00993-.03-.03857-.00911-.01172-.03158-.04053-.00618-.008-.03548-.04541-.00228-.00326q-.81348-1.04125-1.68848-2.02962a10.64073,10.64073,0,0,0-7.97168-3.57471Z"/>
      <ellipse class="cls-13" cx="74.37354" cy="394.46871" rx="38.88604" ry="21.28014" transform="translate(-257.148 168.12724) rotate(-45)"/>
      <path class="cls-7" d="M314.49479,36.28646A84.96465,84.96465,0,0,0,384,188.98307V154.70052C384,104.39714,356.10026,58.84635,314.49479,36.28646Z"/>
      <ellipse class="cls-14" cx="330.75392" cy="96" rx="21.33333" ry="40.26996" transform="translate(28.99333 261.99609) rotate(-45)"/>
      <rect class="cls-15" x="42.66667" y="42.66667" width="21.33333" height="106.66667" rx="10.66666" ry="10.66666"/>
      <path class="cls-12" d="M59.445,170.34684a10.6674,10.6674,0,0,0-1.48894,21.22836l.0101.00146.07682.01074.0345.00489.0433.00585.04166.00586.03191.00424.08854.012.02278.00309.05664.00749.01172.00146c.0625.0083.12663.01661.18913.02458l.00521.00065q1.66405.21119,3.36751.29346l.01205.00049c.0625.00293.125.00586.18782.00846l.016.00065.05827.00244.01693.00082.10709.00423.01986.00065.05208.00195.02865.00114.05143.00179.027.001.08594.00277.03808.0013.0446.0013.04.0013.06152.00163.05306.00147.03939.00113.0472.00114.03646.001.07454.00163.03158.00065.055.00114.03483.00081.05567.001.029.00049.0791.0013.0293.00049.05892.00081.02767.00033.08333.00114h.012l.07292.00081.02865.00016.06608.00049.01888.00016.08463.00049.02149.00016.06738.00017h.02376L64,192h64v0l.00033.00065,7.97005,13.06755a10.66678,10.66678,0,0,0,18.19726-11.13461l-7.95475-13.04215A21.33309,21.33309,0,0,0,128,170.66667H64a21.70582,21.70582,0,0,1-3.04557-.21306,10.72136,10.72136,0,0,0-1.50944-.10677Z"/>
    </g>
  </g>
</svg>
