<svg xmlns="http://www.w3.org/2000/svg" viewBox="0 0 512 512">
  <defs>
    <style>
      .cls-1 {
        fill: #19e77c;
      }

      .cls-2 {
        fill: #5beea3;
      }

      .cls-3 {
        fill: #00d16e;
      }

      .cls-4 {
        fill: #f6edff;
      }

      .cls-5 {
        fill: #00be6e;
      }

      .cls-6 {
        fill: #e8d2ff;
      }

      .cls-7 {
        fill: #fcf8ff;
      }

      .cls-8 {
        fill: #00d56e;
      }

      .cls-9 {
        fill: #8bf3be;
      }
    </style>
  </defs>
  <title>E Commerce_512px</title>
  <g id="Shield">
    <g>
      <path class="cls-1" d="M45.8992,90.87354a42.66665,42.66665,0,0,0-24.56587,38.63684V307.055c0,71.11111,33.33334,116.2963,72.22223,144.81482,70.53976,51.72916,169.01579,51.72916,239.55555,0C372,423.35128,405.33333,378.16609,405.33333,307.055V129.51038a42.66664,42.66664,0,0,0-24.56586-38.63684L249.53494,29.393a85.3333,85.3333,0,0,0-72.40321,0Z"/>
      <path class="cls-2" d="M213.33333,405.175c0,11.97576-10.621,21.59633-22.44466,19.69387a137.91327,137.91327,0,0,1-59.49284-24.60847c-31.41666-23.04167-46.0625-52.66667-46.0625-93.20834V156.63714A21.33335,21.33335,0,0,1,97.6165,137.31861L204.27083,87.35417a21.2258,21.2258,0,0,1,9.0625-2.02084Z"/>
      <path class="cls-3" d="M213.33333,21.33333a85.30819,85.30819,0,0,1,36.20183,8.05957h0s2.05078.96062,5.63867,2.64161h0c3.58854,1.68131,8.71484,4.08268,14.86653,6.96484h0c6.1517,2.88183,13.32813,6.24414,21.01758,9.84635h0c7.68946,3.60254,15.89128,7.445,24.0931,11.28744h0c8.20248,3.84245,16.4043,7.68522,24.09375,11.28743h0c7.68945,3.60254,14.86589,6.96452,21.01758,9.84668h0c6.15169,2.88184,11.278,5.28321,14.86654,6.96452h0c3.58789,1.681,5.63867,2.6416,5.63867,2.6416h0a42.66762,42.66762,0,0,1,24.56575,38.63705V307.055c0,71.111-33.33333,116.29623-72.222,144.81478l-.15169.11068-.03321.02474-.14258.10417-.03841.028-.1263.09212-.03581.026c-.043.03093-.08463.06153-.1276.09278l-.05143.03743c-.04427.03223-.08724.06315-.13151.09571l-.05078.03645c-.03386.02442-.06641.04786-.10027.07259-.02343.01726-.04492.03256-.069.04981-.0358.026-.07031.05143-.10612.07715l-.0625.04492-.11979.08626c-.02409.01726-.04622.03353-.07031.05046-.02474.01823-.05143.03711-.07617.055-.0306.02181-.0625.04525-.0931.06706l-.08984.06445c-.02409.01693-.05144.03679-.07487.05371-.02539.01791-.05209.03711-.07683.055l-.11328.08073c-.01953.014-.03906.02832-.05924.04231-.043.03093-.09245.06608-.13607.097-.01563.01172-.03385.02441-.05013.03581-.03.02181-.05925.04231-.08919.0638l-.03516.02474c-.054.03873-.10417.07454-.15885.11295l-.041.029-.29232.20736-.00521.00358c-.0651.0459-.12955.0918-.19531.1377l-.01627.01172c-.10222.07194-.20248.14225-.30469.21419l-.00716.00521c-.06771.0472-.13347.09375-.20118.14095l-.00455.00325a200.36151,200.36151,0,0,1-71.97722,31.46647l-.00325.00065q-.29493.065-.59115.12924l-.02343.00488c-.11329.02474-.22917.04948-.3431.07389l-.03841.00847-.19271.041-.03516.00749c-.11133.02376-.22526.04818-.33659.07161l-.04557.00977c-.05859.012-.11784.02474-.17643.03711l-.05469.01139-.10026.02116-.05208.01074c-.058.01237-.11394.02409-.17253.03614l-.0599.01237c-.05078.01074-.10026.02083-.151.03125l-.07422.01562-.09375.01921c-.0332.00716-.07161.015-.10547.02181l-.11393.02343-.07487.0153c-.043.00912-.08594.01758-.1289.02637l-.09245.01888-.08529.01758-.12956.026c-.02734.00586-.05664.01139-.08463.01725-.0332.00684-.0638.013-.09766.01953-.0306.00619-.05989.01237-.09049.01823l-.1237.02507-.07422.015-.14779.0293-.05729.01172c-.04231.00814-.07877.0153-.12044.02376l-.05794.01139-.1569.03125-.054.01075-.16211.03157-.043.00847-.14518.02864-.03776.00716-.16992.03321-.04232.00813c-.05664.01107-.11589.02246-.17253.03321l-.02408.00488c-.05469.01042-.10743.02083-.16211.03125l-.03191.00618c-.05729.01075-.11848.02247-.17513.03353l-.0358.00684c-.0612.01139-.11784.02246-.179.03385l-.01042.00228c-.05924.01107-.11849.02246-.17708.03353l-.02669.00488-.17839.03353-.03125.00586c-.1237.02344-.25.04688-.37435.07l-.01823.00358-.1914.03548-.00716.0013q-.19923.03663-.39714.07292l-.00325.00065q-7.5664,1.38282-15.20964,2.19629a32.37281,32.37281,0,0,1-3.42969.18262,32.00143,32.00143,0,0,1-3.35091-63.82259,137.59017,137.59017,0,0,0,66.79427-25.60319c31.43034-23.04916,46.069-52.66537,46.069-93.20476V143.07422L222.38411,87.34831a21.17925,21.17925,0,0,0-9.05078-2.015,32,32,0,0,1,0-64Z"/>
      <circle class="cls-4" cx="384" cy="256" r="106.66667"/>
      <path class="cls-5" d="M384,384A127.63925,127.63925,0,0,1,257.84505,277.75651a10.66673,10.66673,0,1,1,21.02669-3.60482A106.41593,106.41593,0,0,0,308.91536,331.763l.00066.00065c.11393.11328.22591.22331.34049.33626l.002.00163.05469.05371.00326.00326.05208.05111.00586.00553.05208.05111.00391.0039.05078.04981.00651.00618c.13216.12923.26628.25912.39909.3877l.00065.00065c.01758.0166.03581.0345.05273.0511l.00717.00684c.112.10775.22721.21875.33919.32585l.01172.01106c.015.01433.02929.02833.04492.04265l.013.01237.04036.03873.01693.01628.04557.043.00782.00814.05273.04948.00391.0039c.07552.07194.15429.14649.22982.2181l.0039.00358.05274.04981.00651.00618c.01562.01433.0332.03125.04817.04558l.01237.01139.04688.04394.00846.00847.04948.0459.00781.00781c.07618.07129.153.14355.22917.21484l.00781.00684.04948.04622.01042.00977.043.04.01823.0166c.015.01432.02734.026.043.04l.01042.00976c.01758.01628.03125.02963.04883.04558l.00716.00683c.07682.071.1556.14388.23242.21452l.00391.00391.05208.04785.01172.01107.043.03938.01888.01726.03971.03678.01433.013.04427.04037.01367.01269.04557.04167.01107.01009.04492.04167.01367.012c.03711.03418.07487.06868.11263.10286l.02019.01823.0358.03321.026.02343.02864.02572.02669.02474.03321.03027.02148.01921.03516.03157.02148.01986.03646.0332.02083.01856.03386.03092.02409.02149.03385.03092.02279.02018.05534.05013.00976.00847.04753.04264.01692.0153.03907.03516.02474.02246.03125.02767.02408.02181.03451.03092.02214.02018.03645.03223.01954.01725.03906.03483.01953.01758.04492.04037.01042.00879c.05729.05175.11328.10123.17122.15267l.02474.0218.03386.03028.02148.0192.03516.03093.02278.01986.03646.03255.02214.01953.03125.02734.02734.02442.0319.028.02474.02181.04362.03874.01172.00976c.01758.01595.03581.03158.05338.0472l.03321.029.026.02311.03646.0319.02018.01725.0306.02735.02864.02473.028.02442.03.026.026.02311.03125.0267.028.02441.0306.02734.02409.02051.03581.03125.02344.02051.03711.0319.01953.01725.01106.00912c.02214.01985.05144.04492.07422.06478l.0293.02539.02539.02181.02995.02571.0306.02637.02669.02344.03125.02669.026.02246.0293.02507.0306.02669.028.02409.028.02409.02864.02441.03256.028.026.02181c.01757.01563.03776.03256.056.04818l.01757.015.03907.03385.02343.01953.03581.03092.02279.01954.03581.0306.02083.01757.03711.03158.026.02213.02995.02539.028.02377.0293.02506.02995.02539.02409.02019.0345.029.01107.01009c.04883.04069.097.082.14583.12272l.00977.00846.03646.0306.02408.02018.03516.02995.01953.01628.03646.03027.02409.02051.03385.02865.02084.01725.03645.03027.02214.01888.03776.03158.00651.00553.13542.113.02734.02278.0332.02735.02214.01888.03841.0319.01823.0153.04362.03581.01172.00976.04232.03516.01562.013.04623.03808.00325.00261c.11.09147.2181.18.32878.27116l.00065.00065.04557.03711.01693.01367.03971.03288.01628.013.041.03385.01693.01367.04232.03483.00976.00782.04753.03873.00716.00586c.07227.05892.14258.11589.21485.17448l.00195.00163.05078.041.00716.00585.04622.03744.01172.00977.04753.03841.00716.00553.04818.03906.00976.00749c.10677.08594.2155.1735.32227.25911l.00977.00749.04687.03776.00977.00749.04492.03613.015.01172.04688.03711.00455.00391.05274.042.0026.002c.10938.08724.22266.17709.33268.26367l.00326.00261c.03646.029.07422.05859.11133.08756l.0013.001c.03646.02865.07422.05859.11133.08724l.0026.0026c.07617.05957.14649.11459.22331.17416l.00065.00065.05274.041.00455.00391.04883.03776.01107.00846.04948.03874.00521.00358.05273.04134.00326.00261a106.27854,106.27854,0,0,0,40.7819,19.49772l.00846.00195.06641.016.0013.00033c.16471.03841.33463.0778.49935.11588l.00781.00163.0651.015.00912.002.06575.015.00391.001c.41081.09375.8151.18359,1.22721.27213l.002.00065.07031.015.00325.00065.14323.0306.00131.00032c.14518.03093.2858.06088.43164.09115l.0052.001.07032.015h.00065l.07161.015.002.00033.071.01465.002.00065c.16927.03483.33789.06934.50781.10351l.00131.00033.06771.01367.00976.002.06315.01269.01172.00228.06576.013.0013.00033c.11914.02376.24414.0485.36263.07161l.0013.00033.06771.01334.00781.0013.0612.01205.01693.00325.05859.0114.01432.00293.0638.012.00652.0013c.14257.02767.28125.054.42447.08106l.01368.0026.05729.01074.01953.00391.054.01009.02213.00391.05469.01041.02148.00391.054.01009.02018.00358.05794.01074.00977.002.19271.03548.02083.00358.0638.01172.00847.00163.05859.01074.02083.00358.05144.00944.02539.00456.05143.00911.02409.00456.05729.01009.00977.00195.067.01205H365.14c.123.02181.24154.043.36459.06445l.00325.00033.05925.01041.02148.00391.05469.00944.02018.00358.0586.01009.01367.00228.06315.01074.01107.00195.06054.01042.02409.00423q.13379.02295.26758.04525l.00976.00163.0612.01041.01433.00228.05924.01009.01823.00293.05794.00977.01693.0026.05859.00977.01888.00325.0586.00945.01172.00195c.11328.01888.23177.03808.3457.05631l.01888.00326.05729.00911.01888.00293.05339.00847.02539.00423.05534.00879.01692.0026.058.00944.01888.00293.06054.00944.00456.00065c.11719.01856.23633.03711.35352.055l.01822.00292.0612.00945.01107.00162.0638.00977.01367.002.06185.00944.01433.00228.06054.00911.01823.00261.0599.00911h.00065c.069.01042.13542.02051.20443.0306l.02018.00293.05469.00814.02148.00326.05339.00781.02408.00358.05534.00814.02084.00293.054.00781.02409.00358.05534.00814.01693.00228.05989.00879.01367.002.27084.03841.01888.0026.05859.00847.01628.00228.054.00748.028.00391.05013.00684.026.00358.05013.00716.0306.00423.04688.00651.03125.00423.04622.00619.02995.00423c.05924.00781.11979.01627.179.02409l.02084.00293.05273.00683.02539.00358.05534.00749.02083.0026.05339.00717.026.00358.05143.00651.026.00358.05079.00651.02734.00358.054.00716.01237.00163.0638.00814.0039.00065.14.0179.00586.001.06771.00846.00781.001.06055.00781.01888.00228.05533.00716.02279.00293.04948.00618.03385.00424.04558.00553.02994.00358.04883.00619.02865.00358.05013.00618.02474.00293.1901.02344.01433.00163.05273.00618.02734.00326.04167.0052.03971.00456.043.00521.03255.00391.04688.00553.0319.00358.04688.00553.0345.00424.04167.00488.03776.00423.04427.00521.01627.00195.1875.02149.02735.00325.04948.00554.028.00293.04883.00553.03125.00358.04688.00521.03125.00358.04752.00521.03255.00358.04753.00521.026.00293.05339.00586.01627.00195c.09115.00976.17969.01953.27084.029l.02018.00228.056.00586.02148.00228.05469.00586.02409.0026.056.00586.02018.00195.05534.00586.02539.00261.05534.00586.01562.00162.0612.00619.00846.001.13542.01368.00846.00065.05014.00521.028.00293.04818.00455.0319.00326.04883.00488.02864.00293.04883.00456.03385.00358.04232.00391.03906.0039.04037.00391.03971.0039.04167.00391.02734.0026c.056.00554.11589.01107.17188.01628l.03515.00326.041.0039.03906.00358.03841.00358.04167.00391.04037.00358.04231.00391.03255.00293.05079.00488.03125.0026.04948.00456.03125.0026.04557.00424.03776.00325.043.00391.03515.00325.07683.00651.03841.00358.043.00358.03906.00326.03971.00358.03907.00326.04492.0039.03515.00293.04167.00358.041.00326.03971.00358.03971.00325.03907.00326.04166.00325.03972.00326.04036.00325.0612.00521.04427.00358.05273.00424.0293.00227.05078.00391.03646.00293.043.00358.03971.00293.03776.00293.04558.00358.03515.00261.04232.00325.03711.00293.04492.00358.03516.0026.043.00326.03841.00293.0664.00488.054.00391.0293.00228.04948.00358.03711.0026.04622.00326.0332.0026.04558.00326.0371.0026.04623.00326.0332.00228.04427.00325.03906.0026.04623.00326.0319.00228.0625.00423.01758.0013.08268.00554.00391.00032.07552.00488.0319.00228.04883.00326.03515.00228.04362.00293.04167.0026.03776.00228.04427.00293.03385.00228.04623.00293.04036.00228.03581.00227.05013.00326.0319.00195.0586.00358.02148.00131.07878.00488.03255.002.04948.00293.0358.002.043.00261.041.0026.03971.00228.041.00228.03906.00228.04167.00228.041.00228.03907.00227.04166.00228.03972.00228.03971.00228.04167.00228.03059.00163.09506.00521.0306.00162.04557.00228.03515.002.04428.00228.03645.002.04232.002.03841.00195.04558.00228.0345.00195.043.002.03971.002.04167.00228.04167.002.03776.002.04492.002.05729.00293.05794.0026.0293.0013.05208.00228.0319.00163.05079.00228.03385.00163.04427.002.03971.00163.04362.002.03646.00163.04427.002.03711.00163.04427.002.03842.0013.041.002.03971.00163.05013.002.06185.0026.04688.00163.04362.00195.03581.00131.04687.002.03255.0013.04688.00163.03711.0013.03971.00163.043.00163.03971.0013.04167.00163.03841.0013.04427.00162.03776.00131.07031.00228.00782.00032.082.00293.026.00065.05664.002.03125.001.04818.00163.03646.001.04752.00162.03321.001.04752.0013.03646.0013.04492.00131.03646.001.04688.0013.03385.001.05859.00163.02214.00065.16471.00456.02279.00065.05664.0013.03776.001.04362.001.03646.001.04687.0013.03451.00065.05078.00131.028.00065.05534.0013.02995.00065.05273.001.02865.00065.06641.0013.015.00032.08268.00163.01953.00065.06055.001.0332.00065.05079.001.02929.00065.05339.001.03.00032.05208.001.0332.00065.04623.00065.03711.00065.04817.00065.0319.00065.0573.00065.02473.00033.06771.001.03841.00065.056.00065.03386.00032.05078.00065.02734.00033.05469.00065.0319.00033.05013.00065.03255.00032.04883.00033.03516.00032.04948.00065.03125.00033.05338.00033.02995.00032.07031.00033.00977.00032.08333.00033.01823.00032.06576.00033h.02213l.05925.00032h.02929l.05274.00033.03255.00033h.08333l.04883.00032h.08334l.0319.00033H384A10.66667,10.66667,0,1,1,384,384Z"/>
      <path class="cls-6" d="M308.57528,331.42472A106.66666,106.66666,0,0,0,459.42472,180.57528l-.06629-.06629-.01887-.01888-.04719-.04673-.0244-.02439-.04281-.04282-.0244-.0244-.0412-.04074-.02762-.02762-.04074-.04028-.02463-.02417-.04581-.04534-.02118-.02118-.06721-.06629-.00322-.00322-.06077-.05985-.02693-.02647-.04074-.04028-.02555-.02509-.0412-.04074-.026-.02555-.04327-.04236-.02417-.0237-.0419-.041-.02555-.02508-.05639-.055-.00921-.0092c-.023-.0221-.04534-.044-.06813-.0663l-.01312-.01266-.05179-.0504-.02785-.0274-.038-.03659-.0313-.03039-.03591-.035-.02992-.029-.0389-.03752-.02855-.02762-.03959-.03867-.02716-.02624-.04419-.04235-.03706-.03568-.052-.05018-.01819-.01772-.04787-.046-.02739-.026-.0389-.03752-.03062-.02923-.03614-.03475-.03061-.02924-.03959-.03775-.02716-.02624-.04627-.044-.02025-.01934c-.0221-.02117-.04466-.04281-.067-.06375l-.01266-.0122-.05433-.05156-.02693-.02555-.03913-.03729-.03107-.0297-.03614-.03383-.032-.03062-.0366-.03429-.0297-.02831-.037-.03476-.032-.03061-.041-.03821-.02463-.02325-.06629-.06261-.02049-.01911-.04787-.04511-.02532-.02348-.0412-.0389-.02855-.0267-.04189-.03913-.02578-.02394-.04373-.041-.02371-.02233-.04627-.043-.02348-.02164-.0557-.052-.01864-.01726-.06008-.05593-.02048-.01911-.04834-.04465-.02394-.0221-.04489-.04166-.02439-.02256-.043-.03982-.02831-.026-.0412-.038-.02532-.02348-.04811-.044-.02094-.01957-.06722-.06168-.02117-.01934-.04558-.04189-.02877-.02647-.04143-.03775-.02785-.02555-.04-.03637-.02878-.02647-.04051-.03683-.02877-.02647-.04051-.03683-.02716-.0244-.05248-.04787-.01589-.0145-.06767-.06123-.02071-.01888-.04834-.04373-.02371-.02141-.04534-.0412-.02717-.0244-.0412-.03706-.02808-.02532-.04074-.03659-.029-.02624-.04328-.03867-.02463-.02233-.04718-.04212-.044-.03983-.04488-.03982-.02716-.02439-.04166-.03752-.02878-.02555-.04005-.03545-.032-.02877-.03361-.02993-.03706-.03291-.03107-.02785-.03706-.03292-.03268-.029-.03522-.03108-.03913-.03452-.06353-.05617-.02969-.02647-.03775-.03314-.03177-.02808-.03222-.02855-.03913-.03452-.03085-.02716-.03729-.03269-.03245-.02831-.03476-.03061-.03614-.032-.03291-.02877-.03453-.02992-.06422-.0564-.03729-.03268-.03245-.02831-.038-.03292-.02946-.02578-.038-.03292-.03292-.02877-.03706-.032-.029-.02532-.03936-.0343-.02877-.02463-.04189-.03637-.01174-.01035c-.03476-.0297-.06422-.05548-.09944-.08563l-.0198-.017-.03705-.032-.03315-.02854-.03614-.03107-.03314-.02855-.03407-.02946-.03568-.03061-.0366-.03154-.03084-.02624-.03706-.032-.0313-.0267c-.0511-.04374-.09944-.08471-.15054-.12844l-.02-.0168-.04259-.0366-.02831-.02417-.0389-.03292-.02992-.02532-.03844-.03245-.03223-.02762-.038-.032-.02693-.02279-.044-.037-.01888-.01612c-.05386-.04557-.1045-.08792-.15836-.1335l-.023-.01934-.04465-.03728-.02394-.02026-.0435-.0366-.02762-.023-.03913-.03268-.03154-.02647-.03959-.03315-.02555-.0214-.04419-.03683-.01243-.01059-.099-.0824-.0221-.01842-.04074-.03383-.02762-.023-.04143-.03407-.02923-.02417-.04029-.03337-.02808-.02348-.041-.03361-.03176-.02624-.03775-.0313-.03016-.02509-.04005-.03269-.012-.01012-.10012-.08218-.02164-.01795-.043-.03522-.0274-.02233-.04143-.03406-.02739-.02233-.043-.03522-.02785-.02278-.03913-.03177-.03338-.02739-.03867-.0313-.02693-.02187-.07711-.06284-.03107-.02509-.035-.02854-.03614-.02923-.03614-.02924-.03245-.02647-.04074-.03291-.03016-.02417-.03959-.03223-.02923-.02324-.0412-.03338-.029-.02348-.04144-.03314-.0168-.01358c-.05524-.0442-.11187-.08977-.16665-.13351l-.02048-.01634-.047-.03775-.023-.01841-.04511-.03591-.02463-.01957-.04558-.03636-.026-.02095-.04258-.03384-.02624-.02071-.23432-.18553-.01243-.00966c-.01934-.01566-.03338-.02647-.05248-.04144l-.0175-.01381-.05086-.04028-.0175-.01381-.05317-.04166-.01243-.00967-.0557-.04373-.01243-.00967c-.06077-.04788-.116-.09115-.177-.1388l-.01289-.01012-.05064-.0396-.01979-.01519-.04857-.038-.02279-.01772-.04511-.035-.02578-.02025-.04581-.03522-.02371-.01864-.0458-.03522-.01819-.014c-.058-.04512-.113-.0877-.17125-.13258l-.01519-.01151-.05041-.0389-.02072-.01612-.04948-.038-.01888-.01427-.05248-.04051-.01473-.01105-.05524-.04235-.01036-.00806c-.08333-.064-.16228-.12406-.24583-.18782l-.01726-.01312-.0488-.03683-.02187-.0168-.05041-.038-.01772-.01358-.05248-.03959-.01565-.012c-.08333-.06307-.1609-.12177-.24445-.18461l-.01473-.011-.05318-.03982-.01634-.0122c-.0168-.01266-.03453-.02624-.0511-.03821l-.02094-.01589-.05-.03751-.01911-.014-.05156-.03867-.01565-.012-.24721-.18369-.01266-.00943-.05317-.03982-.01749-.01289-.05133-.038-.0198-.01428-.0511-.0382-.0191-.014-.05087-.03751-.01819-.01312c-.07826-.058-.16273-.11993-.24145-.17747l-.01911-.014-.05156-.03775-.01749-.01289-.052-.03821-.02026-.01473-.0511-.03729-.01657-.012-.055-.03982-.00737-.00553c-.06445-.047-.13-.0946-.19519-.14179l-.00161-.00115-.06031-.04373-.01036-.00714c-.01956-.0145-.04005-.029-.05984-.04327l-.00944-.00713-.05731-.04121-.01543-.01128-.05685-.04074-.0069-.00506c-.08793-.06307-.17471-.12545-.26241-.18783l-.00483-.00345-.05847-.04189-.01335-.00967-.05708-.04051-.01174-.00852-.0587-.04166-.01081-.00759c-.10819-.07688-.21982-.15584-.32778-.232l-.008-.00576c-.0198-.01427-.03936-.02785-.05893-.04143l-.01128-.00806-.05938-.04189-.01036-.00713-.06008-.04213-.00759-.00529c-.08816-.06192-.17586-.12338-.26425-.18506l-.00506-.00323-.06284-.044-.006-.00414-.0626-.04328-.00806-.00575-.06307-.04374-.00483-.00345-.06422-.04442-.00484-.00346c-.08815-.061-.17539-.12107-.26378-.18184l-.00875-.006-.05823-.04028-.01312-.009-.05686-.0389-.01427-.00967-.06007-.0412-.00484-.00345-.06514-.04443-.00115-.00069c-.08862-.06053-.17908-.122-.26793-.1823l-.0092-.00644-.05985-.04051-.01082-.0076-.05731-.03844-.01588-.01082-.05778-.0389-.00759-.00529c-.10934-.07389-.22443-.15123-.33376-.22419l-.00875-.006-.06238-.04166-.00759-.0053-.06123-.041-.01128-.00713c-.02026-.01381-.04189-.02808-.06192-.0412l-.00161-.00116c-.0923-.06145-.18184-.12107-.27437-.1823l-.00184-.00092-.05709-.03775-.01818-.0122-.05708-.03775-.01128-.00713-.06031-.04005-.01059-.00691c-.11279-.07411-.22465-.14731-.33721-.22074l-.00391-.00253-.05847-.03821-.0168-.01082-.058-.03775-.01058-.0069-.06192-.04028-.00668-.00438c-.11-.07135-.22787-.14777-.33836-.21867l-.00736-.0046-.05755-.03729-.01864-.01174-.05594-.03613-.01243-.00783-.06053-.0389-.00737-.0046c-.09046-.05778-.183-.11717-.27322-.17425l-.00115-.00069-.06238-.03982-.01174-.0076-.05708-.0359-.01634-.01036-.05916-.03752-.00852-.0053-.06422-.04074-.00115-.00069c-.09368-.05915-.183-.11532-.27644-.17378l-.00391-.00253-.06445-.04052-.00783-.00506-.06008-.03752-.01588-.0099-.05915-.03659-.006-.00415c-.14064-.0877-.276-.17148-.41708-.25872l-.00161-.00115-.06629-.04051-.00852-.00529c-.13488-.08333-.27713-.17034-.412-.25274l-.00806-.00483-.06468-.03936-.0069-.00415-.06284-.03844-.01266-.00759-.06123-.03729-.00414-.0023c-.09161-.05571-.18115-.1098-.27253-.16481l-.00921-.00552-.0603-.03637-.01335-.00783c-.01773-.01082-.04351-.02647-.061-.0366l-.01036-.00621-.061-.0366-.01312-.00806c-.08816-.05271-.17746-.10611-.26631-.15905l-.0099-.00575-.05824-.03476-.015-.009-.05432-.03222-.02371-.014-.05041-.0297-.02417-.0145-.04925-.029-.02832-.0168-.0481-.02831-.0122-.00714c-.06192-.0366-.12292-.07228-.18506-.10864l-.02187-.01312-.04926-.029-.02739-.01588-.04765-.02785-.02624-.01519-.04995-.02923-.02624-.0152-.04764-.02785-.02717-.01611c-.08286-.04788-.16434-.09529-.24767-.14363l-.02278-.01312-.04857-.02785-.0267-.01566-.04742-.02716-.03153-.01818-.04328-.02486-.03314-.01933-.04282-.0244-.03268-.01888c-.0534-.03038-.10588-.06077-.15928-.09115l-.03292-.01864-.04442-.02555-.03062-.01727-.0481-.02739-.02763-.01565-.04557-.02624-.03292-.01864-.04419-.02486-.03177-.018-.044-.02509-.02831-.01588-.11-.06215-.00874-.00506-.05018-.02808-.02647-.015-.04466-.02532-.03429-.01911-.04259-.02371-.03176-.018-.04535-.02555-.03429-.01911-.04074-.02278-.04259-.02371-.03314-.01842-.06975-.0389-.03015-.0168-.05271-.02923-.03729-.02072-.03959-.02209-.03614-.02-.04327-.02394-.035-.01933-.044-.02417-.03384-.01865-.04258-.0237-.03683-.02026-.04926-.02716-.02624-.01427-.076-.04189-.02923-.01589-.04926-.02716-.03475-.01864-.041-.02256-.03752-.02049-.0435-.0237-.03453-.01888-.04166-.02279-.03752-.02048-.04143-.0221-.03568-.01956-.049-.02647-.04351-.02371c-.01979-.01059-.03959-.02118-.05961-.03246l-.0366-.01956-.04143-.0221-.03637-.0198-.04374-.02347-.03291-.01773-.04489-.02417-.0359-.01933-.04374-.02348-.03291-.01772-.0541-.02878-.02347-.01243c-.05133-.02785-.10473-.05639-.15583-.08355l-.029-.01519-.05156-.02762-.02716-.01427-.05225-.02786-.02716-.01427-.05662-.02992-.02118-.01105-.06261-.03314-.0168-.009c-.07964-.04189-.16159-.08517-.24146-.12683l-.01749-.00921-.06031-.03176-.0267-.01381-.05432-.02854-.02371-.0122c-.01979-.01059-.03821-.0198-.05846-.03085l-.02187-.01128-.0679-.03521-.00967-.00507c-.08125-.04212-.16366-.08493-.24445-.12659l-.01473-.00737c-.02164-.01151-.0442-.023-.0656-.03384l-.01911-.01035-.061-.03108-.02-.01036-.06583-.0336-.01381-.00737-.32846-.1678-.00737-.00368-.07274-.03683-.0145-.00759-.06859-.03453-.0122-.00622-.0679-.03429-.01589-.00806c-.10841-.05455-.21843-.11025-.32708-.16458l-.01105-.00552c-.02463-.0122-.05018-.02532-.07434-.03706l-.006-.00322-.08125-.04028h0q-.25239-.126-.50547-.25044h0a105.99628,105.99628,0,0,0-12.77074-5.27706A21.33331,21.33331,0,1,0,404.621,195.38792a63.30491,63.30491,0,0,1,24.63387,15.35725,64,64,0,0,1-90.50966,90.50966,21.33333,21.33333,0,0,0-30.16989,30.16989Z"/>
      <path class="cls-7" d="M384,170.66667h-.13411c-.041.00032-.08073.00032-.12175.00032h-.01172l-.11849.00065h-.01627c-.03842,0-.07618.00033-.11459.00065h-.01888c-.03841.00033-.07422.00066-.11263.00066l-.02148.00032-.112.001h-.02018l-.11263.0013h-.01953c-.03842.00065-.07618.001-.11459.0013l-.01627.00033c-.03842.00032-.07943.001-.11784.00162h-.01172l-.1211.002h-.00976l-.12305.00195h-.00651l-.12109.00228H382.416c-.041.001-.08138.00163-.1224.00228l-.00977.00032-.11979.00228-.01367.00033c-.03841.001-.07812.00195-.11654.0026l-.01692.00033-.11394.00293-.01888.00032-.11588.00293-.01432.00033c-.03842.001-.07813.00195-.11589.00325l-.01693.00033-.11653.00325-.015.00033-.11588.00358-.01563.00033-.11849.0039-.00976.00033-.1224.0039-.00781.00033c-.082.0026-.168.00553-.25.00846l-.00912.00033-.12369.00488h-.00651c-.041.00163-.07943.00326-.1198.00456l-.01432.00065-.11653.00488-.01563.00033-.11328.00488-.02018.001c-.03776.00162-.07487.00293-.11328.00488l-.01628.00065-.11393.00488-.01953.001-.112.00521-.01953.001-.112.0052-.01823.001c-.041.00195-.07552.00358-.11589.00586l-.00911.00033-.12305.00618-.00456.00033-.12565.00651-.002.00032c-.041.00195-.08268.00423-.123.00651l-.00976.00033-.11849.00683-.01433.00065c-.03776.00228-.07877.00456-.11718.00651l-.013.001-.11589.00684-.01693.001-.11263.00651-.01888.00131-.112.00683-.01888.0013c-.03776.00228-.07617.00456-.11393.00717l-.01432.001-.11589.00716-.015.001-.11654.00781-.01237.001-.11914.00781-.00911.00065c-.08073.00554-.166.0114-.24675.01726l-.00911.00065-.11719.00846-.01432.001-.11524.00846-.01562.0013-.11589.00847-.01367.0013c-.03776.0026-.07682.00586-.11523.00879l-.01628.0013c-.03776.00293-.07487.00553-.11263.00879l-.01888.0013-.11068.00879-.02018.00163-.11133.00911-.01758.0013-.11263.00944-.01692.00131-.11394.00976-.01432.0013c-.04036.00326-.07682.00651-.11719.01009l-.00846.00066-.123.01074h-.00065c-.043.0039-.08333.00748-.1263.01107l-.00325.00032c-.04037.00358-.08008.00716-.12045.01107l-.01172.001-.11588.01074-.015.0013-.112.01042-.01954.00195-.11067.01042-.01953.00195-.10743.01009-.02474.0026-.10807.01042-.01823.00195-.112.01107-.01627.00163-.11589.01172-.00846.001c-.04037.0039-.08008.00813-.12044.01236l-.00847.00066-.25.02636h-.0013c-.04036.00423-.08268.00879-.123.01335l-.00781.00065-.11458.0127-.01758.00162c-.03711.00424-.07487.00847-.11263.01237l-.01563.002c-.03711.0039-.07291.00813-.11067.01237l-.02084.00227-.10872.01237-.01888.002-.10938.01269-.02083.00228-.10937.0127-.01888.00228c-.03711.00423-.07227.00846-.10938.013l-.01953.00227-.11068.013-.01562.00195-.11393.01367-.01433.00195-.11263.01368-.00976.0013-.11328.014-.01368.00162-.11523.01433-.01237.00162-.11393.01465-.01628.002c-.03711.00488-.07226.00944-.10937.014l-.02019.00261-.11.01432-.01758.00228-.11.01465-.01888.0026-.10937.01432-.01953.00261-.10873.01465-.01953.0026-.11.015-.01563.00228-.11458.01563-.00847.0013-.11979.0166-.00521.00065c-.03971.00586-.07877.01107-.11849.01693l-.00651.001-.11653.01627-.013.002-.112.01627-.01693.00228-.10742.01563-.02214.00325-.10677.01563-.02018.00293-.10807.01627-.01888.00261-.11.0166-.01693.0026c-.03711.00553-.07422.01107-.11132.01693l-.01563.00228-.112.01725-.015.00228c-.03711.00553-.07422.01139-.11133.01725l-.01693.0026-.11263.01758-.00976.00163c-.03711.00553-.07748.012-.11459.0179l-.01237.002-.11263.0179-.00976.00163-.11524.01855-.01237.002-.11328.01823-.01432.00227-.10873.01791-.02018.00325-.10872.01823-.01758.00293c-.03646.00586-.071.01172-.10742.01791l-.02149.00358-.10612.0179-.02018.00326-.10547.0179-.02213.0039-.10807.01856-.015.0026-.11133.01921-.01432.0026-.11458.01986-.00586.001c-.03907.00683-.07813.014-.11784.02083l-.00456.001c-.03971.00683-.08073.014-.11979.02116l-.00651.0013c-.03971.00683-.07422.013-.11328.02018l-.01628.00293c-.03646.00651-.07291.013-.10937.01986l-.01628.00293-.10742.01953-.02149.0039c-.03645.00684-.06966.013-.10677.01954l-.01757.00358c-.03646.00651-.071.013-.10743.01985l-.02018.00358-.10547.01986-.02148.00391-.10482.01985-.02148.00391-.10677.02051-.01563.00293-.11068.02116-.01367.0026-.11328.02181-.00911.00195-.10547.02051-.02149.00423-.10612.02084-.01432.00293-.10937.02148-.01758.00358c-.03646.00716-.071.014-.10742.02148l-.01823.00359-.10677.02148-.01954.00391c-.03645.00748-.07161.01432-.10742.02181l-.01627.00325-.11.02246-.015.00326c-.03646.00716-.07357.015-.11.02246l-.01563.00325-.10872.02246-.01758.00391-.10872.02246-.013.00293c-.03906.00814-.07552.01563-.11459.02409l-.0052.001-.11914.02539-.002.00032-.11718.02507-.00847.00195c-.03906.00814-.07357.01563-.11263.02409l-.01367.00293c-.03646.00781-.07422.016-.11068.02409l-.01432.00293-.10807.02376-.01823.00391-.10352.02278-.02344.00521c-.0358.00781-.067.01465-.10286.02279l-.02083.00456-.10482.02343-.01888.00423c-.03581.00782-.07031.01563-.10612.02377l-.01823.0039c-.03581.00814-.069.01563-.10482.02409l-.02083.00456c-.03386.00749-.07227.0166-.10612.02409l-.01367.00325-.11263.02572-.00586.0013c-.03581.00847-.07683.01791-.11328.026l-.00847.002c-.03841.00911-.07161.01692-.11.02571l-.01563.00358-.10937.02572-.01433.00325c-.0358.00847-.07226.01693-.10807.02572l-.01628.00358-.10742.02539-.01758.00423-.10286.02474-.02344.00554-.10286.02474-.01888.00455-.10482.02539-.01953.00489c-.0332.00781-.07162.01725-.10482.02539l-.01758.00423-.10547.026-.01888.00423c-.0358.00912-.07161.01791-.10742.0267l-.01041.0026c-.03581.00879-.07553.01856-.11133.02767l-.00847.002-.11588.029-.00261.001-.11328.02832-.013.00326-.10872.02734-.015.00391-.10742.02734-.01562.00391-.10938.028-.013.00326c-.03515.00944-.07031.01823-.10612.02734l-.02018.00553-.10352.0267-.01823.00488c-.0358.00911-.069.0179-.10481.02734l-.01823.00456-.10612.028-.01433.00358-.10807.02864-.01562.00423-.10873.029-.00846.00228-.11.0293-.00911.00228c-.03776.01042-.07292.01986-.11133.02995l-.01042.00293-.10612.02864-.01888.00521-.10156.02767-.02213.00586-.10157.028-.02018.00554-.10091.02767-.02214.00618-.0996.02767-.02474.00684-.097.027-.02474.00683-.09961.02767-.02148.00619c-.03256.00911-.06771.0192-.10091.02832l-.02019.00586-.10286.02929-.01563.00423-.10547.03028-.01171.00325-.10482.02995-.01237.00358-.10482.03027-.01823.00521c-.0332.00944-.06836.01986-.10091.0293l-.02214.00651c-.03255.00944-.06575.01888-.0983.02865l-.02474.00716-.09636.028-.026.00782-.095.028-.02734.00814c-.0306.00879-.06315.01855-.09375.02767l-.02865.00846-.09505.02832-.02474.00749-.0957.02864-.02539.00749c-.03256.01009-.06511.01986-.09766.02962l-.02149.00651c-.03255.00977-.06575.01953-.0983.02963l-.02084.00618c-.03255.01009-.0651.01986-.09765.02962l-.01823.00586-.09766.02963-.01953.00618c-.03255.00977-.069.02116-.10156.03125l-.01888.00586-.099.03027-.02409.00749-.09961.03125-.01953.00586-.09831.03092-.02409.00749-.09765.0306-.02214.00716-.0983.03093-.02279.00716c-.03255.01009-.06706.02116-.09961.03157l-.01823.00586c-.03255.01042-.069.02181-.10091.03223l-.02083.00651c-.03256.01042-.06836.02213-.10092.03223l-.01822.00585c-.02995.00977-.06446.02116-.09441.0306l-.02539.00814-.099.03223-.00847.0026-.10416.03386-.01888.00618c-.03256.01074-.069.02279-.10157.0332l-.01758.00586-.099.03256-.02409.00781-.097.03223-.02083.00683-.09831.03255-.02278.00782-.09636.0319-.02409.00813-.0944.03158-.02734.00911c-.0319.01107-.0625.02116-.0944.03191l-.02149.00748-.099.03321-.02018.00683-.09765.03353-.02149.00716c-.0293.01009-.06055.02051-.08984.03093l-.02865.00944c-.0293.01041-.0612.02116-.09114.03157l-.01823.00619-.099.03418-.02149.00748-.0957.03288-.02474.00879-.0918.0319-.02929.01042-.09115.0319-.02539.00879-.09505.03353-.02409.00846-.09375.0332-.02669.00944-.09245.03256-.02669.00976-.0931.0332-.02279.00814-.097.03483-.02019.00716-.095.03418-.02213.00814-.09115.03288-.02083.00749-.097.03548-.01692.00586c-.03125.01172-.069.02539-.10092.03711l-.01692.00618c-.0319.0114-.06836.02474-.09961.03646l-.01953.00716-.09571.03516-.02474.00911-.0931.03451-.02539.00944-.09179.03418-.026.00976-.0931.03483-.02409.00912-.09245.0345-.02734.0101c-.03125.012-.0612.02343-.0931.03515l-.02149.00814c-.03125.012-.0638.02441-.0957.03613l-.02018.00781-.09571.03646-.01692.00619-.09245.03548-.02409.00911-.0918.03549-.02213.00846-.0944.03613-.02344.00912-.09375.03646-.02409.00911-.09049.03548-.028.01074c-.02864.0114-.06185.02409-.09114.03549l-.02474.00976-.0918.03613-.02539.0101c-.0319.012-.0625.02441-.09375.03678l-.02149.00846-.09309.03679-.02735.01074-.09049.03613-.02474.00977c-.02865.01139-.056.02246-.08529.03385l-.0306.01237-.08268.0332-.0293.01172c-.02669.01042-.056.02246-.08268.03321l-.0319.01269-.08464.03451-.026.01041-.09049.03646-.0267.01107-.09179.03743-.02279.00944c-.03125.0127-.06055.02442-.09114.03711l-.02735.0114-.08984.03678-.026.01042-.08985.03743-.026.01074-.09114.03777-.02344.00944-.0918.03841-.02539.01041-.0931.03907-.01693.00716-.0944.03939-.01953.00813-.09505.04-.01172.00521c-.0332.014-.0651.02767-.099.04167l-.01823.00781-.09505.04036-.02083.00879-.09375.04-.02149.00912-.0931.04-.02343.00976-.0892.03874-.02864.012-.08724.03776-.02669.0114-.0892.03873-.02474.01075c-.03125.01334-.06119.02669-.09179.04l-.02084.00912-.0944.041-.01953.00878c-.03125.01335-.0651.02832-.0957.042l-.01693.00716-.09114.04036-.02019.00879-.08854.03939-.02213.00977c-.03125.01334-.06055.02636-.09115.04l-.02279.0101-.09114.04069-.02344.01074-.09115.04036-.02278.01042c-.03125.014-.06055.027-.09115.041l-.02344.01042c-.02864.0127-.0625.028-.09049.041l-.02344.01041-.09114.04134-.02344.01042-.08984.041-.02474.01106-.08985.041-.02409.01107-.08593.03939-.02865.013c-.026.01172-.056.02571-.08138.03743l-.0293.01367-.08073.03711-.02864.01335-.08464.03906-.02213.01042-.08985.04167-.02408.01106c-.02995.01433-.0612.02865-.0918.043l-.02018.00944-.09115.04264-.02279.01075-.09114.04264-.02279.01074-.08854.042-.026.01205-.08854.04232-.02214.01041-.08984.04265-.02409.01172-.0905.043-.01953.00944-.09375.04493-.01692.00813-.09766.04688-.00391.002c-.03255.01563-.06445.03093-.097.04688l-.01888.00879-.0905.04427-.02083.01009-.08594.04167-.03.01464-.084.04069-.02734.01335-.084.04134-.0293.01465-.08333.04069-.02864.01432-.08269.04069-.0306.015-.084.04166-.02474.01237-.08594.04265-.02864.01432-.08529.04232-.02344.012c-.028.01367-.05013.02507-.07812.03906l-.03581.01791-.07292.03678-.03385.01693-.07617.03874-.02995.015c-.02539.01269-.05469.02734-.07943.04036l-.02994.015-.08008.04069-.03256.0166-.07942.04036-.0319.01628-.08008.041-.03125.01627-.07943.04037-.03255.01725c-.02539.01269-.05208.02669-.07747.03971l-.03581.01823-.07682.04-.03125.01628-.08138.04231-.02735.01433-.08008.04134-.02929.01562-.07552.03907-.03256.01725-.07747.04069-.02474.013-.084.04427-.02279.01172-.08594.04557-.02539.01367-.082.0433-.02995.016-.08073.043-.02929.0153c-.0267.01465-.054.02929-.08138.04362l-.028.015-.08268.04427-.02865.0153c-.02669.01465-.05338.02865-.08073.0433l-.02864.01562-.08334.04492-.02343.013-.08659.04688-.02084.01107-.08528.04655-.02474.01334-.07617.04167-.03321.0179c-.02669.01465-.05013.02735-.07682.04232l-.02344.01269c-.02669.01465-.05533.03028-.082.04525l-.02734.01465-.08464.04655-.02343.01335-.082.04524-.02994.01628-.08008.0446-.028.0153-.08073.04524-.028.01563-.08268.0459-.02539.01432-.08138.04557-.0293.0166-.08138.04558-.02409.01367-.082.04622-.02734.01563c-.02474.01367-.05469.03092-.07943.04492l-.02344.01335-.07357.04166-.03906.02214c-.02213.01269-.04622.02669-.069.03939l-.028.016-.07878.04524-.0293.01661c-.02929.0166-.05208.02962-.08073.04654l-.02669.015-.07812.04525-.03386.0192-.07422.043-.03255.01888-.07552.04362-.0332.01921-.07487.04394-.0319.01823-.07618.04492-.03255.01856-.07617.04459-.02865.01693-.07161.042-.03581.02116-.06771.03972-.03645.02181-.069.04036-.03711.02246-.06836.04037-.0306.01822-.07617.04558-.0306.0179-.07683.0459-.02994.0179c-.026.01563-.05079.0306-.07748.04623l-.02995.0179-.07617.0459-.0306.01855-.07747.04655-.02865.01758-.07812.0472-.028.01693-.07877.04785-.02735.0166-.07682.04655-.02864.01758-.071.04362-.03515.02116-.06511.04-.03906.02409-.06576.04036-.03385.02051-.07161.0446-.0293.01822c-.02409.01465-.05143.03125-.07487.04623l-.0319.01985-.07487.0459-.03125.01986-.07422.04622-.0319.01954-.07422.04687-.03125.01953-.07487.04655-.0306.01921-.07682.04817-.0267.01726-.07747.04882-.028.01758c-.02409.015-.05144.03223-.07487.04753l-.028.01758c-.02213.014-.04557.02864-.06706.04264l-.04036.02539-.0625.04-.041.026-.06119.03906-.03711.02409c-.02409.015-.04688.03-.071.04525l-.028.0179-.07422.04786-.03255.02083-.07357.0472-.02995.01986-.07292.04687-.0332.02149c-.02344.01562-.04948.03222-.07291.04752l-.0306.01986-.07292.04752-.0319.02084c-.02344.0153-.05013.03287-.07422.04817l-.028.01856-.07031.0459-.03385.02246-.07227.0472-.02539.01693c-.02344.01562-.04752.03157-.07161.04687l-.03255.02149-.07032.0472-.02278.01464c-.02539.01693-.05209.03484-.07813.05176l-.02734.01823-.07748.05143-.02408.01628c-.0254.01725-.05144.03451-.07748.05143l-.028.01888-.07422.04981-.0293.01953-.07357.04948-.0306.02051-.07487.05045-.02474.01693-.07812.05273-.026.01758-.07748.05273-.02408.01628-.07292.04981-.0306.0205-.069.0472-.02995.02019c-.02278.016-.04622.0319-.06966.04785l-.0306.02116-.069.04752-.02865.01953-.07161.04916-.0306.02116-.07292.05013-.028.01953c-.02539.01758-.04883.03353-.07357.0511l-.02995.02051-.07161.04981-.0306.02148c-.02539.01725-.04622.0319-.071.04948l-.03125.02181c-.02344.01628-.04818.03385-.07162.04981l-.02929.02083-.07292.05111-.02865.02018-.07226.05078-.028.01986c-.02148.01464-.04492.03157-.0664.04655l-.03451.02473c-.02344.016-.04362.03028-.0664.04655l-.0293.02084-.07227.05143-.01888.01335c-.02734.0192-.05338.03841-.08073.05761l-.02083.015-.07617.054-.02735.01986-.07356.05241-.02735.01986c-.02539.0179-.04817.0345-.07291.05273l-.028.01953-.07292.05274-.02929.02116-.07031.05078-.0306.02246-.071.05143-.02864.02051-.07292.05306-.02539.01855-.07227.05274-.02864.02116-.06185.04492-.03906.029-.06055.04427-.03581.026c-.02018.0153-.04036.03-.0612.04525l-.0358.02669c-.02084.015-.04427.03223-.06446.04753l-.02994.02181-.06836.05045-.0319.02409-.069.05111-.02995.02246-.07031.05208-.0293.02214-.07162.05306-.02734.02083-.071.05274-.02995.02278-.06966.05241-.02865.02181-.069.05208-.0293.02181c-.02213.01693-.043.03288-.06575.04981l-.0319.02441c-.02084.0153-.03841.029-.0586.04427l-.041.03093-.05925.04525-.0319.02441c-.02278.01693-.04232.0319-.06445.04915l-.03125.02377c-.02214.01692-.04557.0345-.06771.05175l-.028.02116-.06641.05143-.03451.02637-.0651.05013-.03255.02507-.06511.05013-.03515.02734-.06315.04915-.03451.0267-.0638.04915-.03646.02832-.056.04395-.041.0319-.05209.04069-.04492.03515-.054.04232-.03971.03093c-.01953.016-.03581.02832-.056.04427l-.04232.03353c-.01823.01432-.0358.02767-.05338.042l-.03972.03125-.05794.0459-.0332.026-.0638.05078-.03125.02474c-.02214.01758-.043.03385-.06446.05143l-.03515.02767-.0625.05013-.03386.02669-.06445.05209-.0319.02506-.06576.05306-.02994.02409c-.02214.01758-.04558.03613-.06706.054l-.03.02376c-.02148.01758-.04557.03711-.06771.05469l-.02734.02213-.0625.05046-.03386.02734-.05664.04623-.03841.03092-.05534.04525-.03841.03125-.05729.04687-.0332.027c-.02149.01791-.04037.0332-.0625.05111l-.02865.02344-.06706.05533-.02929.02377-.06771.05631-.02669.02181c-.02149.01791-.04623.03841-.06836.05632l-.0293.02409-.06641.05533-.02864.02344-.06771.05632-.02734.02278-.06706.056-.0293.02474-.0625.05176-.03125.02637-.05924.0498-.03451.029-.05924.04948-.03255.02767-.0599.05013-.03255.028-.06185.05208-.02669.02246-.06576.05567-.0306.026c-.02148.0179-.04167.0358-.06315.054l-.0319.0267c-.02083.01823-.03906.0332-.0599.05143l-.03645.03092-.0612.05274-.03125.02636c-.02084.01823-.041.03516-.0625.05372l-.0319.02766-.06381.05469-.02864.02474-.06315.05436-.0306.0267-.06641.057-.02278.02019-.06055.0524-.03386.0293-.05924.05143-.02995.02637c-.01953.0166-.03841.0332-.05729.05013l-.03711.03223-.05924.05143-.02539.02279-.06446.056-.0319.02832-.0612.054-.03125.02735-.06119.05436-.03321.02929-.06185.05469-.02864.02539c-.02149.01856-.04362.03874-.06446.05729l-.02994.02637-.06315.056-.02865.026-.054.04818-.041.03646-.05143.04622-.03646.03288c-.01953.01693-.03516.03158-.054.0485l-.03841.03418-.05078.04623-.03972.03515-.05273.04785-.03385.03093-.05925.05338-.02734.02507-.06511.05892-.02669.02409-.06315.05794-.03.027c-.01888.01725-.04232.03841-.06055.05566l-.03255.02962-.05924.05437-.0319.02929-.06055.05534-.03125.029-.05859.054-.03256.03-.04882.04524-.04167.03842-.05013.04687-.03711.03418-.05208.0485-.03711.03418-.05013.0472-.04427.041c-.015.014-.02865.02637-.043.04036l-.04427.041-.04753.04492c-.01172.01107-.02279.02083-.03385.0319l-.058.05436-.03125.02963-.06054.05664-.0306.02929c-.01888.01726-.04037.03809-.05925.05567l-.03125.03c-.02083.0192-.03971.03711-.05989.05631l-.0293.02767-.06185.05892-.02669.02572-.06055.05794-.02995.02832-.05273.05013-.03646.03516c-.01823.01757-.03255.03157-.05143.04915l-.03581.03483-.05208.05013-.03321.0319-.056.054-.02995.029-.05664.05469-.02995.029-.05925.05729-.02994.029c-.01954.01953-.03842.03744-.0586.057l-.0306.03027-.05989.05859-.02865.02767-.05859.05762-.0306.02962-.0599.05892-.02669.026c-.02018.01986-.04167.04167-.06185.0612l-.026.02572-.06315.06185-.02279.02311c-.01823.0179-.03906.03809-.05664.056l-.03125.0306c-.01953.01985-.03711.03711-.05729.057l-.02474.02474-.06185.06153-.02018.02018-.06706.06706-.01953.0192c-.02148.02149-.043.0433-.0651.06511l-.02474.02474c-.01953.01985-.043.04362-.06315.06347l-.02344.02377-.06315.06347-.02474.02507-.06315.06347-.02344.02409-.06185.06283-.02734.02767c-.02019.01985-.041.041-.06055.06119l-.02539.026c-.02018.01985-.04167.042-.0612.06217l-.026.02669c-.01823.01823-.03646.03711-.054.05534l-.03125.0319-.05078.05176-.03841.03906c-.01562.01661-.0306.0319-.04688.04818l-.0345.03613c-.01823.01823-.0332.03386-.05078.05209l-.0332.03418-.054.05566-.026.027-.05925.06152-.02734.02832-.05925.0612-.02669.028c-.02083.02213-.03906.04069-.06055.06282l-.02408.02539c-.02084.02214-.04037.04232-.06185.06445l-.02409.02507c-.02084.02214-.04037.04232-.0612.06478l-.02474.02539c-.01888.02018-.04167.04427-.0612.06445l-.02409.02539c-.01888.02018-.04036.04232-.05924.06283l-.02539.02637-.05469.05794-.0293.03092-.05273.05632-.03.03157-.05338.05632-.028.03027c-.01953.02051-.03646.03874-.05534.05925l-.02409.02539c-.01953.0205-.04036.043-.05924.06347l-.02669.02865-.0586.06217-.026.028-.05859.06348-.02539.02734-.0586.06315-.02669.02832c-.01888.02083-.03906.04264-.05859.06348l-.02409.02669c-.01953.02051-.04037.04329-.05925.06413l-.02539.02734c-.01888.02051-.04036.04427-.05989.06478l-.02344.026-.05469.05957-.028.0306-.054.05892-.028.03092c-.01758.01888-.03581.03874-.05274.05762l-.02734.03028-.05664.06217-.02214.02409c-.01888.02083-.04036.04492-.05924.06543l-.02279.02571-.05989.06576-.02409.02669-.05729.06348-.0267.02962-.05664.06348-.026.02864-.056.06283-.028.03125-.05534.06185-.02735.0306c-.01888.02116-.0358.03971-.054.06087l-.02865.0319c-.01888.02116-.03646.04134-.05534.06217l-.02474.028c-.01692.01888-.0319.03646-.04883.05566l-.03385.03776-.04753.05437-.03125.03483-.04752.054-.0332.03809-.05079.05729-.02083.02441-.05924.06739-.02409.02767-.0586.0664-.02213.02572-.05794.06673-.02539.029-.058.06706-.02083.02344c-.01953.02311-.03971.04622-.0599.06933l-.02278.0267-.058.06738-.02278.026-.05729.06673-.02474.02865c-.01823.02148-.03386.03971-.05274.0612l-.026.03059-.05078.05925-.0306.03613-.04753.05534-.03059.03613-.04753.05567-.0319.03776-.04948.05827-.02279.027-.05794.06836-.02214.0267-.05794.068-.02278.027c-.01758.02148-.03777.04525-.056.06673l-.02409.029-.05664.06771-.02149.02572c-.01953.02343-.03906.04589-.05859.06966l-.02084.02539c-.01953.02344-.03971.04687-.05924.07064l-.01953.02376-.05925.07064-.02083.02539c-.01823.02181-.03776.0459-.056.06738l-.02018.02507-.05925.071-.01367.01693-.06054.07324-.01758.02148c-.01953.02377-.03776.04558-.05664.06934l-.02019.02409c-.01953.02376-.03711.04557-.05664.069l-.02343.02864-.05534.068-.02279.02767-.05534.06836-.02409.029c-.01757.02181-.0345.04329-.05273.0651l-.026.03255c-.01758.02181-.03581.04362-.05339.06576l-.02343.0293c-.01758.02181-.03777.04622-.05534.06836l-.02149.02669-.05729.07064-.02018.02571-.05274.06543-.026.03223c-.01562.01986-.03255.041-.04883.06087l-.02734.03483c-.01628.01986-.03125.03874-.04687.05892l-.02865.03581-.04883.06087-.026.03288-.04818.0612-.026.03222c-.01693.02214-.03516.04492-.05273.06673l-.02214.028c-.01888.02409-.03581.04622-.05534.07l-.02083.027-.05664.07194-.02018.02572-.05469.06934-.02344.03027c-.01693.02214-.03646.04688-.054.069l-.02083.027c-.01758.02213-.03776.04818-.05469.07031l-.02213.02832-.05534.071-.02018.02571-.04818.0625-.0293.03776-.04622.05957-.026.03386-.04688.06087-.02669.03483-.05078.06608-.01628.02181c-.01888.02409-.03776.04915-.05664.07357l-.02083.02734-.05534.07259-.01888.02474-.056.07324-.02018.0267-.05469.07226-.02018.026c-.01823.02442-.03516.0472-.054.07162l-.02213.02962-.05274.07-.02083.02767-.05469.07226-.01953.026-.056.07455-.01628.02181c-.01822.02441-.03385.0459-.05273.07031-.00586.00879-.01628.02214-.02279.0306l-.04817.06543-.02344.03125c-.01563.02051-.0332.04492-.04883.06543l-.02409.03223c-.01627.02246-.0306.042-.04752.06445l-.02409.03255-.04883.06576-.02409.0332c-.01693.02246-.0332.04427-.04948.06706l-.02344.03157c-.01627.02246-.0345.04688-.05078.06966l-.02278.03093-.05144.06966-.02148.02962-.05208.07162-.02149.029-.05208.07194-.01953.02734-.054.07357-.01888.02669c-.01693.02279-.0345.0472-.05078.07l-.02148.02962c-.01628.02279-.03256.04558-.04948.06836l-.02019.02865c-.01822.02506-.0319.04394-.04947.069l-.02019.028-.05143.07129-.01628.02279c-.01953.027-.03776.05241-.05664.07943l-.015.0205-.056.0791-.01628.02279c-.01953.027-.0358.05078-.05533.0778l-.01693.02376-.05469.0778-.01693.02344c-.01757.02507-.0371.05241-.05468.0778l-.01758.02474c-.01758.02506-.03516.04948-.05274.07487l-.01953.02767-.05273.07519-.01758.02507-.054.0778-.01562.02148-.056.08073-.013.01856-.05274.07552-.01627.02409-.05469.07812-.01107.01628-.05664.08235-.01432.02051-.056.08171-.01432.02051-.05469.07975-.01628.02344-.05534.08105-.01367.01953c-.01888.02735-.03711.05469-.056.08236l-.01367.02051c-.01888.02734-.03841.05533-.05664.083l-.01237.01823c-.01888.02735-.03841.056-.05664.08334l-.01367.01985c-.01888.02767-.03906.05795-.05794.08529l-.00912.01367c-.02018.03-.03906.0586-.05924.08822l-.01042.01562c-.01888.02735-.03906.058-.05794.08561l-.01042.01628-.05208.07747-.01693.02507c-.01693.02572-.03581.054-.05339.07975l-.01041.0153c-.01823.028-.03776.05762-.05664.08529l-.013.01985-.05534.08366-.013.01888-.054.08236-.015.02279-.05469.083-.01237.01856c-.01823.02767-.03711.05566-.05534.08366l-.01432.02181-.054.08236-.013.0205-.05338.08171-.01628.02441c-.01823.028-.03451.05371-.05274.08138l-.01236.01888-.056.08594-.01107.01725-.05534.085-.00781.013-.05534.08528-.01107.01725c-.01953.02995-.03711.058-.05664.08822l-.00846.01335-.0573.08854-.01041.01725-.05469.08464-.01367.02148c-.01758.028-.0332.05274-.05143.08106l-.01628.026c-.01693.02571-.0345.054-.05143.08008l-.01367.02246c-.01693.026-.03646.057-.05274.083l-.01432.02246c-.01758.028-.03386.054-.05208.082l-.01433.02278-.05143.08268-.01432.02279c-.01823.028-.03516.055-.05274.08333l-.01237.01954-.05338.08626-.00977.01562-.05143.08269-.013.02083-.04883.07812-.015.02377-.05144.083-.01237.0205-.05273.085-.013.02116c-.01693.02832-.03451.05632-.05208.08464l-.013.02181-.05079.08236-.01432.02408c-.01627.02637-.03581.05762-.05143.084l-.013.02083c-.01758.02865-.03451.05632-.05143.085l-.013.02084c-.01693.02832-.03451.05664-.05144.08528l-.01367.02181c-.01693.02865-.0332.055-.05013.08334l-.01432.02376c-.01758.02864-.03451.05664-.05143.08528l-.01042.01726c-.01758.02864-.03451.05729-.05143.08561l-.01042.01693-.05208.08756-.00847.01335-.05208.08756-.01237.02051-.05143.08626-.01237.02051-.05013.085-.013.02246c-.01758.02865-.03386.057-.05078.08562l-.013.02148-.04882.08333-.015.02507-.04883.08333-.01367.02279c-.01692.029-.03255.05631-.04948.085l-.01237.02148-.05143.08724-.01042.01888-.05208.08854-.01042.01791c-.01757.03125-.0345.06022-.05273.09147l-.00651.01139-.05273.0905-.00782.01432-.054.09343-.00521.00944c-.01823.03092-.03451.05957-.05208.09082l-.01172.02018c-.01628.029-.03386.05892-.05013.08789l-.01107.0192c-.01693.029-.0332.05827-.05013.08724l-.01237.02214-.05013.08854-.00977.01693c-.01627.0293-.0345.06054-.05078.08952l-.01172.02083-.05078.08952-.00911.01627-.05144.09213-.00911.016-.05273.09375-.00651.012-.05339.09538-.00781.01432-.05339.0957-.00521.00879c-.01692.03125-.0345.06218-.05143.09343l-.00716.012c-.01693.03158-.03581.06576-.05339.09733l-.0052.00944c-.01888.03386-.03451.06153-.05274.09538l-.00846.01563c-.01758.03157-.03451.06185-.05143.09342l-.00847.01465c-.01693.03157-.0332.06152-.05078.0931l-.00911.01725c-.01758.03158-.03321.06087-.05079.09245l-.00846.016c-.01758.0319-.0332.0612-.05078.09277l-.00911.01725-.05013.09245-.00847.016c-.01693.03158-.0332.06185-.05078.09343l-.00846.01595-.05013.09375-.00782.01432-.05208.097-.00456.00911c-.01823.03386-.03645.06706-.054.10091l-.002.00293-.05468.10319-.00326.00554-.05273.09961-.00586.01171-.05209.09766-.00651.01237c-.01627.03158-.03385.06478-.05078.09635l-.00716.014-.05078.096-.00716.014c-.01628.0319-.0332.06413-.05013.096l-.00781.01465c-.01628.0319-.03256.06217-.04883.09407l-.00912.01725c-.01627.0319-.0319.06185-.04883.09408l-.00781.01562c-.01692.0319-.0332.06315-.04948.09506l-.00781.01464c-.01628.03223-.03255.06381-.04948.09571l-.00716.0153c-.01823.03418-.03255.06217-.05013.09635l-.00521.01074-.05013.09831-.00325.00586-.05144.10059-.00586.01139-.05078.09993-.00521.01042-.04947.09831-.00717.01367-.04947.09766-.00652.01334-.04882.097-.00716.01465-.04883.097-.00716.014c-.01628.03223-.03125.06282-.04753.09538l-.00912.0179c-.01692.03483-.03124.06283-.04817.09733l-.00391.00846c-.01758.03451-.03385.06771-.05078.10222l-.00521.00976c-.01693.03483-.03385.069-.05143.10384l-.00065.00261c-.054.10872-.10742.2181-.16081.32715l-.00325.00651-.05079.10449-.00325.00716-.04883.09994-.00716.015-.04883.10091-.0039.00781c-.01628.03483-.03256.068-.04948.10287l-.00456.01074-.04948.10221-.00391.00879-.04948.10352-.00455.00879c-.01628.03483-.03321.071-.05013.10579l-.0013.00228c-.08855.1862-.17514.37142-.26237.55859l-.00066.00066c-.01757.03743-.0332.07194-.05078.10937l-.002.00456-.05013.10709-.0026.00651c-.01758.03744-.03191.06934-.04948.1071l-.00261.00521c-.01692.03743-.03255.07031-.04948.10775l-.002.00488c-.01758.03743-.03255.07064-.05013.10807l-.00195.00456c-.01693.03743-.0319.07064-.04948.1084l-.002.00521c-.11979.26334-.237.52376-.35481.78873v.00033l-.04948.11133-.0013.00358a84.82775,84.82775,0,0,0-7.01888,28.3763A21.33334,21.33334,0,0,0,318.668,272.71973q.76171.05322,1.513.05306A21.335,21.335,0,0,0,341.4401,252.93,42.76088,42.76088,0,0,1,384,213.33333a21.33333,21.33333,0,0,0,0-42.66666Z"/>
      <path class="cls-1" d="M324.41827,224l0,0a15.08494,15.08494,0,0,1,21.33332,0L384,262.24838l80.91506-80.91506a15.08493,15.08493,0,0,1,21.33331,0l0,0a15.08494,15.08494,0,0,1,0,21.33332l-91.58173,91.58173a15.08494,15.08494,0,0,1-21.33332,0l-48.91507-48.91507A15.08493,15.08493,0,0,1,324.41827,224Z"/>
      <rect class="cls-8" x="21.33333" y="192" width="64" height="149.33333" rx="31.99997" ry="31.99997"/>
      <rect class="cls-9" x="192" y="85.33333" width="42.66667" height="341.33333" rx="21.33331" ry="21.33331"/>
    </g>
  </g>
</svg>
