<svg xmlns="http://www.w3.org/2000/svg" viewBox="0 0 512 512">
  <defs>
    <style>
      .cls-1 {
        fill: #cf9cf4;
      }

      .cls-2 {
        fill: #e3c5ff;
      }

      .cls-3 {
        fill: #dbb5ff;
      }

      .cls-4 {
        fill: #3053b0;
      }

      .cls-5 {
        fill: #e52c3c;
      }

      .cls-6 {
        fill: #cd0039;
      }

      .cls-7 {
        fill: #dfbcf5;
      }

      .cls-8 {
        fill: #c6c500;
      }

      .cls-9 {
        fill: #d8d750;
      }

      .cls-10 {
        fill: #a4a900;
      }

      .cls-11 {
        fill: #d7e816;
      }

      .cls-12 {
        fill: #c3dd00;
      }

      .cls-13 {
        fill: #b1b900;
      }

      .cls-14 {
        fill: #b8d100;
      }

      .cls-15 {
        fill: #e6f06d;
      }

      .cls-16 {
        fill: #b1c300;
      }

      .cls-17 {
        fill: #91a300;
      }

      .cls-18 {
        fill: #c0c733;
      }

      .cls-19 {
        fill: #d6e852;
      }

      .cls-20 {
        fill: #e8cfff;
      }

      .cls-21 {
        fill: #e1c1ff;
      }

      .cls-22 {
        fill: #f6edff;
      }

      .cls-23 {
        fill: #fcf9ff;
      }

      .cls-24 {
        fill: #ead4ff;
      }

      .cls-25 {
        fill: #ff4957;
      }

      .cls-26 {
        fill: #f02f3f;
      }

      .cls-27 {
        fill: #f1e2ff;
      }

      .cls-28 {
        fill: #f3e6ff;
      }

      .cls-29 {
        fill: #5f7bce;
      }
    </style>
  </defs>
  <title>E Commerce_512px</title>
  <g id="Trolley_with_Box" data-name="Trolley with Box">
    <g>
      <path class="cls-1" d="M460.03906,228.168,246.70573,165.42318A42.66629,42.66629,0,0,0,192,206.35547V341.33333A42.66711,42.66711,0,0,0,234.66667,384H448a42.66711,42.66711,0,0,0,42.66667-42.66667V269.10156A42.66734,42.66734,0,0,0,460.03906,228.168Z"/>
      <rect class="cls-2" x="21.33334" y="341.33333" width="106.66667" height="42.66667" rx="21.33332" ry="21.33332"/>
      <rect class="cls-3" x="42.66667" y="362.66667" width="85.33333" height="21.33333" rx="10.66666" ry="10.66666"/>
      <circle class="cls-4" cx="277.33333" cy="448" r="42.66667"/>
      <circle class="cls-4" cx="448" cy="448" r="42.66667"/>
      <rect class="cls-5" x="85.33335" y="106.66665" width="106.66663" height="42.66667" rx="21.33331" ry="21.33331"/>
      <rect class="cls-6" x="106.66667" y="128" width="85.33333" height="21.33333" rx="10.66666" ry="10.66666"/>
      <path class="cls-7" d="M480,405.33333H213.33333A21.33333,21.33333,0,0,1,192,384V138.66667a10.66667,10.66667,0,1,0-21.33333,0V384a42.66666,42.66666,0,0,0,42.66666,42.66667H480a10.66667,10.66667,0,0,0,0-21.33334Z"/>
      <g>
        <g>
          <rect class="cls-8" x="170.66667" y="192" width="277.33333" height="170.66667" rx="42.66667" ry="42.66667"/>
          <rect class="cls-9" x="320" y="192" width="106.66667" height="21.33333" rx="10.66666" ry="10.66666"/>
          <rect class="cls-10" x="320" y="341.33333" width="106.66667" height="21.33333" rx="10.66666" ry="10.66666"/>
          <rect class="cls-11" x="170.66667" y="192" width="170.66667" height="170.66667" rx="42.66667" ry="42.66667"/>
        </g>
        <rect class="cls-12" x="192" y="192" width="42.66667" height="170.66667" rx="21.33331" ry="21.33331"/>
        <rect class="cls-12" x="277.33333" y="192" width="42.66667" height="170.66667" rx="21.33331" ry="21.33331"/>
        <rect class="cls-13" x="362.66667" y="192" width="42.66667" height="170.66667" rx="21.33331" ry="21.33331"/>
        <rect class="cls-14" x="213.33333" y="341.33333" width="85.33333" height="21.33333" rx="10.66666" ry="10.66666"/>
        <rect class="cls-15" x="213.33333" y="192" width="85.33333" height="21.33333" rx="10.66666" ry="10.66666"/>
        <rect class="cls-16" x="192" y="341.33333" width="42.66667" height="21.33333" rx="10.66666" ry="10.66666"/>
        <rect class="cls-16" x="277.33333" y="341.33333" width="42.66667" height="21.33333" rx="10.66666" ry="10.66666"/>
        <rect class="cls-17" x="362.66667" y="341.33333" width="42.66667" height="21.33333" rx="10.66666" ry="10.66666"/>
        <rect class="cls-18" x="362.66667" y="192" width="42.66667" height="21.33333" rx="10.66666" ry="10.66666"/>
        <rect class="cls-19" x="192" y="192" width="42.66667" height="21.33333" rx="10.66666" ry="10.66666"/>
        <rect class="cls-19" x="277.33333" y="192" width="42.66667" height="21.33333" rx="10.66666" ry="10.66666"/>
      </g>
      <path class="cls-20" d="M490.66667,277.33333h-64v-8.23242A42.66667,42.66667,0,0,0,396.039,228.168L182.7052,165.423A42.66627,42.66627,0,0,0,128,206.35558V341.33333A42.66667,42.66667,0,0,0,170.66667,384H448a42.66667,42.66667,0,0,0,42.66667-42.66667ZM192,330.66667a10.66667,10.66667,0,0,1-21.33333,0V224A10.66667,10.66667,0,1,1,192,224Zm64,0a10.66667,10.66667,0,0,1-21.33333,0V245.33333a10.66666,10.66666,0,0,1,21.33333,0Zm64,0a10.66667,10.66667,0,0,1-21.33333,0v-64a10.66667,10.66667,0,1,1,21.33333,0Zm64,0a10.66667,10.66667,0,0,1-21.33333,0V288A10.66667,10.66667,0,1,1,384,288Z"/>
      <rect class="cls-21" x="405.33333" y="298.66667" width="42.66667" height="85.33333" rx="21.33331" ry="21.33331"/>
      <rect class="cls-7" x="85.33333" y="341.33333" width="106.66667" height="42.66667" rx="21.33332" ry="21.33332"/>
      <rect class="cls-1" x="106.66667" y="362.66667" width="85.33333" height="21.33333" rx="10.66666" ry="10.66666"/>
      <g>
        <g>
          <rect class="cls-8" x="170.66667" y="21.33333" width="277.33333" height="170.66667" rx="42.66667" ry="42.66667"/>
          <rect class="cls-9" x="320" y="21.33333" width="106.66667" height="21.33333" rx="10.66666" ry="10.66666"/>
          <rect class="cls-10" x="320" y="170.66667" width="106.66667" height="21.33333" rx="10.66666" ry="10.66666"/>
          <rect class="cls-11" x="170.66667" y="21.33333" width="170.66667" height="170.66667" rx="42.66667" ry="42.66667"/>
        </g>
        <rect class="cls-12" x="192" y="21.33333" width="42.66667" height="170.66667" rx="21.33331" ry="21.33331"/>
        <rect class="cls-12" x="277.33333" y="21.33333" width="42.66667" height="170.66667" rx="21.33331" ry="21.33331"/>
        <rect class="cls-13" x="362.66667" y="21.33333" width="42.66667" height="170.66667" rx="21.33331" ry="21.33331"/>
        <rect class="cls-14" x="213.33333" y="170.66667" width="85.33333" height="21.33333" rx="10.66666" ry="10.66666"/>
        <rect class="cls-15" x="213.33333" y="21.33333" width="85.33333" height="21.33333" rx="10.66666" ry="10.66666"/>
        <rect class="cls-16" x="192" y="170.66667" width="42.66667" height="21.33333" rx="10.66666" ry="10.66666"/>
        <rect class="cls-16" x="277.33333" y="170.66667" width="42.66667" height="21.33333" rx="10.66666" ry="10.66666"/>
        <rect class="cls-17" x="362.66667" y="170.66667" width="42.66667" height="21.33333" rx="10.66666" ry="10.66666"/>
        <rect class="cls-18" x="362.66667" y="21.33333" width="42.66667" height="21.33333" rx="10.66666" ry="10.66666"/>
        <rect class="cls-19" x="192" y="21.33333" width="42.66667" height="21.33333" rx="10.66666" ry="10.66666"/>
        <rect class="cls-19" x="277.33333" y="21.33333" width="42.66667" height="21.33333" rx="10.66666" ry="10.66666"/>
      </g>
      <path class="cls-22" d="M396.039,228.168,182.70509,165.423A42.66618,42.66618,0,0,0,128,206.35547V341.33333A42.66667,42.66667,0,0,0,170.66667,384H384a42.66667,42.66667,0,0,0,42.66667-42.66667V269.10091A42.66667,42.66667,0,0,0,396.039,228.168ZM192,330.66667a10.66667,10.66667,0,0,1-21.33333,0V224A10.66667,10.66667,0,1,1,192,224Zm64,0a10.66667,10.66667,0,0,1-21.33333,0V245.33333a10.66666,10.66666,0,0,1,21.33333,0Zm64,0a10.66667,10.66667,0,0,1-21.33333,0v-64a10.66667,10.66667,0,1,1,21.33333,0Zm64,0a10.66667,10.66667,0,0,1-21.33333,0V288A10.66667,10.66667,0,1,1,384,288Z"/>
      <path class="cls-23" d="M397.70833,228.55339,184.345,165.88281a10.66633,10.66633,0,1,0-6.01823,20.46615l213.32683,62.66015a10.6665,10.6665,0,0,0,6.05468-20.45572Z"/>
      <path class="cls-24" d="M138.66667,320.72135A10.66678,10.66678,0,0,0,128,331.388v9.94531A42.66711,42.66711,0,0,0,170.66667,384h72.3597a10.66667,10.66667,0,0,0,0-21.33333h-72.3597a21.35736,21.35736,0,0,1-21.33334-21.33334V331.388a10.66678,10.66678,0,0,0-10.66666-10.66667Zm275.124,21.66439a10.67129,10.67129,0,0,0-9.92708,6.75977A21.22854,21.22854,0,0,1,384,362.66667H285.693a10.66667,10.66667,0,0,0,0,21.33333h98.38868l.04427-.00033h.08268l.06185-.00065h.01855l.04558-.00032h.0192l.05111-.00065h.01139l.0625-.00065.01693-.00033.04492-.00033.02311-.00032.0446-.00065.0166-.00033.0625-.001h.01009l.05241-.001.01953-.00033.04557-.00065.01758-.00032.12533-.00261.0179-.00065.0459-.001.01888-.00033.0485-.0013.0153-.00033.0612-.00162.0153-.00033.04818-.0013.0179-.00065.04948-.00131.01432-.00065.06153-.002.01432-.00033.04883-.00162.01855-.00065.04623-.00163.01822-.00033.12435-.00455.01628-.00066.04915-.00195.01563-.00065.06055-.0026h.00162l.06348-.00261.015-.00065.04818-.002.01823-.001.05176-.00228.01041-.00032.0625-.00293.013-.00065.05111-.00261.01628-.00065.04622-.00228.01888-.001.06087-.00326.00912-.00065.05338-.0026.01758-.001.04753-.00261.01562-.001c.04265-.00228.08366-.00456.12631-.00716l.013-.00065.0498-.00293.0166-.001.05339-.00326.00944-.00065.06022-.0039.02051-.00131.04264-.0026.01986-.0013.04752-.00326.015-.001.06217-.00423.01009-.00066.05078-.00358.01921-.0013.04687-.00325.01563-.001.06185-.00456.00749-.00065.05436-.00391.01758-.0013.04524-.00325.01888-.00163c.041-.00293.08171-.00618.12272-.00944l.01661-.0013.04752-.00391.01628-.0013.05306-.00423.00911-.001.06218-.00488.01334-.0013.04851-.00424.0192-.00162.04688-.00391.01432-.0013.06055-.00521.0166-.00163.04525-.0039.0205-.002.04395-.0039.01758-.00163.06087-.00586.00618-.00033.055-.0052.0192-.002.0446-.00423.01693-.00163.05729-.00553.00456-.00065.06119-.00586.01823-.00195.04134-.00424.02312-.00227.04264-.00424.01888-.00195.05827-.00618.0192-.002.04134-.00423.02214-.0026.042-.00456.01986-.00195.05859-.00651.01595-.00163.04362-.00488.02311-.00261.04135-.00456.01985-.00227.05925-.00651.00521-.00066.056-.00651.01692-.00195.04525-.00521.01986-.00228.05045-.00618.00944-.001.05892-.00716.02018-.00228.04265-.00521.01985-.0026.04525-.00553.01563-.002.06022-.00748.01334-.00163.04655-.00586.02181-.00293.042-.00521.0179-.00228.05924-.00781.01237-.00163.05013-.00651.01661-.00228.04394-.00586.01986-.0026.12142-.01628.01334-.002.04851-.00651.01627-.00228.04948-.00683.01237-.002.0599-.00846.0153-.002.04492-.00652.01953-.00292.04655-.00652.01432-.00195.0599-.00879.013-.00195.04655-.00684.02051-.00293.043-.00651.01791-.0026.05989-.00912.00586-.001.05274-.00781.02116-.00326.04362-.00684.0153-.00227.123-.01921.01237-.00195.04688-.00749.01888-.00293.05143-.00814.00781-.0013.06022-.00977.01661-.0026.04394-.00749.01953-.00293.0446-.00748.01562-.00261.0599-.00976.01042-.002.04882-.00813.01986-.00358.04264-.00717.01758-.00293.05925-.01009.00586-.001.05533-.00977.015-.0026.04655-.00782.016-.00293.05794-.01009.002-.00065.05957-.01041.01856-.00326.04232-.00781.01888-.00326.04817-.00879.01172-.00195.06088-.01139.00813-.0013.05144-.00945.01627-.00325.04948-.00911.01107-.002.06087-.01139.00749-.0013.05176-.01009.01823-.00326.04231-.00814.01921-.00358.11849-.02311.01465-.0026.04687-.00944.01628-.00293.0498-.0101.01009-.00195.05827-.01139.01725-.00358.0433-.00879.0192-.00391.04362-.00879.01595-.00325.05632-.0114.02083-.00423.03972-.00814.02116-.00455.03906-.00781.02051-.00424.05664-.012.012-.00261.0472-.00976.02083-.00423.03939-.00847.01986-.00423.0485-.01041.012-.00261.05631-.012.01823-.00391.03841-.00846.02474-.00521.03841-.00846.01921-.00424.05664-.01237.0166-.0039.04232-.00912.02018-.00455.04069-.00912.01921-.00423.05729-.013.01074-.00261.04753-.01074.01855-.00423.0433-.00977.01692-.0039.05729-.013.00944-.00228.04981-.01139.01758-.00424.04362-.01009.01627-.0039c.03874-.00912.07943-.01856.11849-.028l.0127-.00293.0485-.01172.013-.00293.05371-.013.00619-.0013.05957-.01465.01334-.00293.04493-.01107.0192-.00455.04623-.0114.01074-.0026.05924-.01465.01042-.0026.04883-.012.01692-.00423.043-.01074.0166-.00423.11687-.02962.01627-.00391.04427-.01139.015-.00391.04883-.01237.01171-.00293.0573-.015.01464-.00358.04362-.0114.01791-.00488.04622-.012.0127-.00326.05729-.015.01367-.00358.04525-.01205.01627-.00456.0459-.012.014-.00391.05892-.01562.00228-.00065.05338-.01433.02019-.00553.04036-.01107.0179-.00488c.03842-.01042.07715-.02083.11556-.03158l.014-.0039.04492-.01237.0166-.00456.05209-.01432.00488-.00163.05762-.016.01693-.00488.04166-.01172.01953-.00554.03939-.01106.01888-.00554.05567-.01562.012-.00358.0459-.013.01888-.00554.03841-.01107.02051-.00585.05045-.01465.01758-.00521.0446-.013.01888-.00554.03971-.01171.01791-.00521.05208-.0153.00521-.00163.05761-.01693.016-.00488.04037-.012.01986-.00586.04362-.013.01367-.00424.05631-.01692.015-.00456.04069-.01237.02116-.00651.03906-.01172.01855-.00586.055-.0166.014-.00456.04167-.01269.02148-.00684.03614-.01107.02246-.00716.054-.0166.00391-.0013.05176-.01628.01953-.00618.04069-.0127.01595-.00521.05306-.0166.00391-.0013.05761-.01855.01368-.00424.04329-.014.01855-.00586.0433-.014.013-.00423.05469-.01758.01823-.00586.04036-.01335.01758-.00553.043-.01432.014-.00424.057-.01888.00814-.0026.0472-.01562.02018-.00684.03906-.013.01661-.00554.05078-.01692.00879-.00293.05306-.01791.01725-.00553.03906-.01335.01953-.00651.04525-.01562.01074-.00358.05469-.01856.01758-.00586.04036-.014.01726-.00586.04166-.01433.01628-.00553.055-.01921.01009-.00358.04655-.01595.01628-.00586.04264-.015.0153-.00521.055-.01953.00912-.00325.04752-.01661.01628-.00586.041-.01432.01757-.00651.04981-.01758.00553-.00195.055-.01986.01692-.00586.041-.015.01725-.00619.041-.015.01562-.00553.05339-.01953.0179-.00619.03613-.01335.02507-.00911.0319-.01172.02148-.00814.05209-.0192.01725-.00619.03906-.01465.02084-.00748.03352-.0127.02312-.00846.05013-.01888.01074-.00391.04622-.01758.02018-.00748.03581-.01335.02051-.00781.03776-.01432.02083-.00814.05046-.01921.01595-.00586.03809-.01465.02148-.00813.03516-.01368.02018-.00781.05143-.01986.02018-.00781.03386-.013.02409-.00944.03059-.012.02442-.00944.05013-.01986.02051-.00781.03222-.0127.02637-.01041.02962-.01172.02409-.00977.04167-.01628.01986-.00781.04329-.01725.02213-.00911.03256-.013.02311-.00911.04069-.0166.01172-.00456.05306-.02148.0192-.00782.03549-.01432.0218-.00879.03321-.01367.02148-.00879.05013-.02051.02214-.00911.03092-.0127.0267-.01106.02864-.01172.02311-.00977.03548-.01465.04-.0166.02767-.01139.027-.0114.02572-.01074.02734-.01139.028-.012.04882-.02051.02312-.00944.03092-.01335.02214-.00944.02832-.01172.027-.01172.04265-.01823.03125-.01334.02864-.01205.02246-.00976.02995-.0127.02539-.01107.027-.01171.043-.01856.02962-.013.02767-.012.02572-.01107.02734-.012.02832-.01237.02246-.00976.04818-.02116.02767-.01237.02506-.01107.0306-.01334.02344-.01042.03093-.01367.03059-.01367.041-.01823.01921-.00847.03515-.01595.02149-.00976.03222-.01433.02116-.00944.04753-.02148.02571-.01172.02865-.013.02441-.01107.02963-.01334.02278-.01042.04883-.02246.01888-.00847.03451-.016.02408-.01106.02833-.013.02376-.01075.03711-.01725.02734-.01269.03744-.01758.02343-.01074.02735-.0127.026-.012.0345-.01628.01661-.00781.05045-.02344.01953-.00944.03288-.0153.02181-.01042.03125-.01465.02311-.01106.0472-.02246.02507-.01205.02539-.012.02734-.013.026-.01237.02637-.013.03288-.01563.03678-.01758.02832-.01367.02572-.01269.02669-.0127.02507-.01237.03808-.01855.01758-.00847.0433-.02116.02343-.01139.0319-.01562.01856-.00944.04329-.02116.00879-.00424.05078-.02506.02116-.01042.02995-.015.02474-.01237.03027-.015.02019-.0101.0485-.02408.02148-.01107.03028-.015.02376-.012.029-.01465.02246-.01139.03906-.01953.02963-.015.02962-.015.027-.01367.02408-.01237.02637-.01367.02572-.013.04329-.02213.02832-.01465.02377-.012.02832-.01465.02278-.01172.03288-.01693.01921-.01009.0472-.02441.02376-.01237.027-.01433.02441-.01237.027-.01432.026-.01367.02149-.01139.05045-.02637.02214-.01172.02767-.01432.02506-.01335.02507-.01335.02767-.01464.04166-.02214.0267-.01432.02539-.01367.02539-.01335.02636-.01432.02474-.01335.03939-.02116.03093-.01627.02441-.01335.027-.01465.02571-.01367.02149-.01172.09993-.05436.02312-.0127.02832-.01562.02018-.01107.029-.016.01921-.01042.05273-.029.02214-.01237.02669-.01465.02311-.013.02669-.01465.02442-.01367.04752-.02636.02149-.01205.02929-.01628.02019-.01139.028-.01562.02344-.01335.03613-.02051.03548-.01985.02344-.01335.02409-.01335.028-.01595.02149-.01237.028-.01562.02246-.013.04981-.02832.0192-.01107.0293-.01693.01888-.01074.03093-.01758.028-.01627.03548-.02051.02767-.01595.02637-.0153.02409-.014.02571-.015.02442-.014.03873-.02279.03028-.01758.02376-.014.026-.0153.02442-.014.02994-.0179.01823-.01042.04525-.027.02507-.01465.02506-.015.02474-.01465.02442-.01432.02473-.015.02832-.01692.043-.02572.02019-.012.029-.01726.02018-.012.027-.01628.02181-.013.05078-.03092.01888-.01107.0293-.0179.01692-.01042.03093-.01888.0166-.00977.05794-.03548.01465-.00879.02865-.01757.0205-.0127.02539-.01563.02442-.015.03971-.02441.02865-.01758.02637-.01628.0205-.013.02735-.01693.02311-.014.02539-.016.01921-.012.05175-.03222.01921-.012.02539-.016.02441-.0153.02539-.016.02377-.015.04329-.02735.02246-.01432.027-.01693.02214-.014.026-.01661.02083-.013.05306-.03385.0153-.00977.02637-.01692.02246-.01433.027-.01757.01953-.01237.027-.01726.03125-.0205.03515-.02247.02442-.016.02571-.01627.01953-.013.02832-.01823.01726-.0114.04915-.0319.02246-.01464.02767-.01823.01758-.0114.029-.01888.01693-.01139.05208-.03418.01986-.013.02539-.01693.02148-.014.02572-.01692.02344-.01563.03222-.02148.03451-.02279.02441-.01627.02181-.015.02572-.01693.02116-.01432.02734-.01823.00521-.00358.069-.04655.00944-.00651.0332-.02213.01367-.00944.03125-.02116.01465-.00977.05111-.03483.02051-.014.02636-.0179.02019-.014.02767-.01855.01855-.013.05339-.03646.01334-.00944.02832-.01921.01921-.01334.02734-.01888.01823-.0127.027-.01888.04167-.02865.02343-.0166.02344-.01595.02409-.01692.02376-.01661.02279-.016.02311-.01627.04623-.03255.01822-.0127.026-.01823.02115-.0153.02442-.01693.02116-.015.05273-.03743.01205-.00879.029-.02051.01823-.013.02571-.01823.02377-.01693.02994-.02148.03418-.02442.02246-.01627.02344-.01693.02279-.01628.02734-.01985.01921-.01367.042-.03028.02474-.0179.02051-.015.02571-.01855.01921-.01432.02734-.01986.01465-.01074.05046-.03679.0192-.01432.02539-.01855.02181-.01595.02442-.01791.0192-.01432.05078-.03744.01433-.01074.02636-.0192.02019-.015.026-.01953.01823-.01367.09245-.069.01888-.014.026-.01953.01692-.013c.03288-.02441.06511-.04883.09766-.07324l.01237-.00944.03158-.02377.01041-.00813c.03418-.026.06836-.05176.10254-.07813l.01074-.00814.03191-.02409.00944-.00748.03352-.02572.00521-.0039.06543-.05046.00912-.00684.02929-.02278.01465-.01107.02832-.02214.015-.01139.05631-.04394.01139-.00879.02637-.02051.0166-.013.028-.02181.015-.01172.10059-.0791.00781-.00619.03027-.02376.014-.01107.02962-.02344.00912-.00716.06282-.0498.00717-.00554.03027-.02408.01367-.01107.02962-.02344.01042-.00846.09831-.07878.01334-.01074.0293-.02344.01563-.01269.02539-.02051.02441-.01986.042-.03385.01563-.0127.02832-.02311.01237-.01009.02995-.02442.00618-.00488.06413-.05273.00781-.00619.03125-.02571.01074-.00879.0306-.02539.00716-.00554.10287-.085.00911-.00781.03093-.02572.01074-.00879c.03288-.02734.0638-.05306.09668-.08072l.01334-.0114.02637-.02181.01725-.01465c.03223-.02669.06478-.05436.09668-.08138l.00619-.0052.03125-.026.012-.01041.09733-.08269.00912-.00781.028-.02376.0153-.013.02767-.02409.01009-.00846.06218-.05339.00456-.00391.02766-.02376.01563-.01334.02767-.02409.00944-.00814c.03092-.02669.06152-.05306.09212-.08008l.01856-.01595.02506-.02181.01595-.014.026-.02278.00651-.00554.056-.04915.01628-.01432.02506-.02214.01563-.01367.02734-.02409.00814-.00716.05632-.05013.012-.01042.029-.02571.01074-.00944.02963-.02637.00911-.00814.0599-.05371.00651-.00586.02995-.02669.00976-.00847.0293-.02669.01237-.01107c.03027-.027.06152-.05534.09179-.08268l.012-.01074.02832-.02572.01074-.00976.09636-.08789.00781-.00684.02832-.02637.013-.01172.02832-.026.00618-.00553.05664-.05208.012-.01107.02572-.02377.015-.01367.027-.02539.01041-.00944c.02995-.02767.0612-.057.09115-.085l.014-.01269.02539-.02377.0166-.01562.02311-.02149.03679-.0345.02246-.02149.0179-.0166.02506-.02344.015-.01432.02506-.02376.01042-.00977.05339-.05045.01139-.01074.02832-.027.00911-.00879.02963-.02832.00813-.00749.09375-.08984.01042-.01009.02735-.02637.01074-.01042c.03092-.02962.06022-.05794.09082-.08789l.01139-.01074.026-.02539.014-.01335.09147-.08919.00684-.00684.028-.02767.0114-.01106.02832-.02767.0026-.00261.0651-.06412.00293-.00293.02865-.02832.01139-.0114.02767-.02734.00586-.00586c.0319-.03158.06283-.06218.0944-.09408l.00879-.00846.0293-.0293.00683-.00683.0892-.08952.015-.015.02376-.02442.013-.013.08724-.08822.01107-.01139.02572-.02637.01269-.01269.02637-.027.00619-.00618.05533-.057.00977-.00977.02539-.026.0127-.01334.026-.0267.01041-.01074.08724-.09049.0114-.01172.02539-.02637.01269-.013.08627-.09017.00911-.00944.028-.02962.00911-.00944c.029-.03028.05794-.06088.08659-.09147l.01139-.01172.02474-.026.01367-.01465.02442-.026.015-.01563.03841-.041.01758-.01888.02344-.02474.01432-.01562.02441-.02637.0114-.01172.04883-.0524.01009-.01107.02148-.02344.01725-.01855.02149-.02312.0192-.02083.01758-.01888.02507-.02734.03288-.03549.01464-.01627.02312-.02507.01432-.01562.02311-.02539.01139-.01237.04948-.05436.00847-.00912.02539-.028.01269-.014.02246-.02474.01595-.0179.04395-.04851.01074-.012.02474-.027.01139-.013.02442-.027.014-.01595.04329-.04785.01237-.014.02083-.02344.01693-.01888.02018-.02278.01693-.01921c.026-.029.05078-.057.07617-.08594L416,369.555l.02116-.02376.01758-.01986.0205-.02343.014-.01595.04069-.04623.01465-.01693.02018-.02311.01758-.02018.02083-.02376.01563-.01791.0446-.05175.00781-.00879.02213-.02572.016-.01855.02051-.02344.01693-.01986.0192-.02213.03386-.03939.0153-.01791.02246-.026.01725-.02018.02051-.02376.01628-.01921.026-.0306.02474-.029.02018-.02409.01921-.02246.01595-.01888.02115-.02506.01661-.01953.02994-.03549.02279-.02734.0166-.01953.02051-.02474.0166-.01953.02083-.02507.02116-.02506.02865-.03451.0166-.02018.01921-.02279.01888-.02278.01823-.02181.0179-.02181.03255-.03939.01791-.02181.0179-.02181.01855-.02246.01856-.02246.01758-.02181.03385-.041.01042-.013.02441-.02962.01725-.02116.02084-.02572.01465-.0179.03092-.03809.00456-.00553.0358-.04427.01237-.01563.02344-.029.0153-.01888.02507-.03125.01009-.01237.03483-.04329.01269-.016.02409-.03028.013-.01627.02637-.03288.00944-.012.03581-.04493.00879-.01139.027-.03385.01334-.01693.02409-.0306.01172-.01465.029-.03711.01465-.01888.02767-.03483.01139-.01465.02474-.0319.01205-.015.02864-.03711.00749-.00944.0345-.04427.01172-.015.02474-.03191.01139-.015.026-.03385.01074-.01368.0345-.04492.00847-.01107.026-.03385.013-.01693.02441-.03222.0114-.01465.03385-.04427.00846-.01107.02637-.03483.0127-.01693.02311-.03027.01335-.01758.02636-.03483.0127-.01693.029-.03841.01139-.015.02474-.03321.01205-.01562.02278-.0306.0127-.01693.03353-.04524.00748-.0101.02832-.03776.00944-.01269.02963-.04.00521-.00684.03548-.04817.00553-.00716.03093-.042.00651-.00911.02994-.04069.00651-.00879.07032-.096.00879-.01237.02734-.03743.00781-.01075.071-.098.00488-.00651.029-.04.00911-.013.03223-.04459.00163-.00228.03581-.05013.00455-.00619.02963-.04167.00878-.012.0267-.03743.00846-.012.06869-.097.00716-.00977.02864-.04069.00651-.00944.069-.09831.00684-.00976.028-.04.00717-.01042c.02311-.03288.04524-.06478.068-.09765l.00781-.0114.02669-.03873.00847-.01172.03125-.04558.00163-.00228.03548-.05175.00163-.00228.03287-.04785.00489-.00716q.05225-.07619.10384-.15235l.00521-.00781.02864-.04232.00619-.00944.06836-.10124.00358-.00553.03222-.04785.002-.00326c.03515-.05208.06966-.10384.10416-.15625l.00326-.0052c.03418-.05111.06966-.10482.10319-.15625l.00293-.00456.03288-.05013.0013-.002c.02343-.0358.04557-.06966.06868-.10546l.00228-.00358.0332-.05079.001-.00162q.05127-.07911.10221-.15886l.00326-.00488.10189-.15951.00065-.00162a42.50644,42.50644,0,0,0,3.67676-7.23568,10.67376,10.67376,0,0,0-9.9349-14.54525Z"/>
      <rect class="cls-25" x="21.33333" y="106.66667" width="106.66667" height="42.66667" rx="21.33331" ry="21.33331"/>
      <rect class="cls-26" x="21.33333" y="128" width="85.33333" height="21.33333" rx="10.66666" ry="10.66666"/>
      <path class="cls-27" d="M416,405.33333H149.33333A21.33333,21.33333,0,0,1,128,384V128a10.66667,10.66667,0,1,0-21.33333,0V384a42.66666,42.66666,0,0,0,42.66666,42.66667H416a10.66667,10.66667,0,0,0,0-21.33334Z"/>
      <rect class="cls-28" x="21.33333" y="117.33334" width="21.33333" height="255.99998" rx="10.66666" ry="10.66666"/>
      <rect class="cls-24" x="21.33333" y="128" width="21.33333" height="42.66667" rx="10.66666" ry="10.66666"/>
      <rect class="cls-24" x="21.33333" y="256" width="21.33333" height="42.66667" rx="10.66666" ry="10.66666"/>
      <rect class="cls-24" x="106.66667" y="256" width="21.33333" height="42.66667" rx="10.66666" ry="10.66666"/>
      <rect class="cls-24" x="21.33333" y="298.66667" width="21.33333" height="42.66667" rx="10.66666" ry="10.66666"/>
      <rect class="cls-24" x="106.66667" y="298.66667" width="21.33333" height="42.66667" rx="10.66666" ry="10.66666"/>
      <rect class="cls-24" x="106.66667" y="128" width="21.33333" height="42.66667" rx="10.66666" ry="10.66666"/>
      <rect class="cls-22" x="21.33333" y="256" width="106.66667" height="21.33333"/>
      <rect class="cls-22" x="21.33333" y="298.66667" width="106.66667" height="21.33333"/>
      <circle class="cls-22" cx="106.66667" cy="128" r="21.33333"/>
      <circle class="cls-22" cx="106.66667" cy="362.66667" r="21.33333"/>
      <circle class="cls-22" cx="42.66667" cy="362.66667" r="21.33333"/>
      <circle class="cls-22" cx="42.66667" cy="128" r="21.33333"/>
      <circle class="cls-29" cx="213.33333" cy="448" r="42.66667"/>
      <circle class="cls-22" cx="213.33333" cy="448" r="21.33333"/>
      <circle class="cls-29" cx="384" cy="448" r="42.66667"/>
      <circle class="cls-22" cx="384" cy="448" r="21.33333"/>
      <rect class="cls-23" x="192" y="213.33333" width="21.33333" height="128" rx="10.66666" ry="10.66666"/>
      <rect class="cls-23" x="256" y="234.66667" width="21.33333" height="106.66667" rx="10.66666" ry="10.66666"/>
      <rect class="cls-23" x="320" y="256" width="21.33333" height="85.33333" rx="10.66666" ry="10.66666"/>
      <rect class="cls-23" x="384" y="277.33333" width="21.33333" height="64" rx="10.66666" ry="10.66666"/>
      <rect class="cls-28" x="448" y="298.66667" width="42.66667" height="21.33333" rx="10.66666" ry="10.66666"/>
    </g>
  </g>
</svg>
