<svg xmlns="http://www.w3.org/2000/svg" viewBox="0 0 512 512">
  <defs>
    <style>
      .cls-1 {
        fill: #00b165;
      }

      .cls-2 {
        fill: #e32636;
      }

      .cls-3 {
        fill: #ce0535;
      }

      .cls-4 {
        fill: #ff4957;
      }

      .cls-5 {
        fill: #ff3040;
      }

      .cls-6 {
        fill: #df2233;
      }

      .cls-7 {
        fill: #ff5d6a;
      }

      .cls-8 {
        fill: #ff858f;
      }

      .cls-9 {
        fill: #2147ba;
      }

      .cls-10 {
        fill: #19e77c;
      }

      .cls-11 {
        fill: #5f7bce;
      }

      .cls-12 {
        fill: #f6edff;
      }

      .cls-13 {
        fill: #e5c9ff;
      }

      .cls-14 {
        fill: #dcecf7;
      }

      .cls-15 {
        fill: #ecd8ff;
      }

      .cls-16 {
        fill: #f15a67;
      }

      .cls-17 {
        fill: #00cd6c;
      }

      .cls-18 {
        fill: #d9b0ff;
      }

      .cls-19 {
        fill: #7bf2b4;
      }
    </style>
  </defs>
  <title>E Commerce_512px</title>
  <g id="Truck_Cargo" data-name="Truck Cargo">
    <g>
      <g>
        <rect class="cls-1" x="384" y="213.33333" width="21.33333" height="42.66667" rx="10.66666" ry="10.66666"/>
        <rect class="cls-2" x="21.33333" y="106.66667" width="320" height="170.66667" rx="42.66667" ry="42.66667"/>
        <rect class="cls-3" x="213.33333" y="149.33333" width="128" height="64" rx="31.99997" ry="31.99997"/>
        <rect class="cls-4" x="21.33333" y="106.66667" width="192" height="170.66667" rx="42.66667" ry="42.66667"/>
        <path class="cls-5" d="M64,277.33333H170.66667a42.66669,42.66669,0,0,0,42.66666-42.66666V173.69515a10.66667,10.66667,0,1,0-21.33333,0v60.97152A21.35746,21.35746,0,0,1,170.66667,256H64a10.66667,10.66667,0,1,0,0,21.33333Z"/>
        <rect class="cls-6" x="42.66667" y="149.33333" width="21.33333" height="85.33333" rx="10.66666" ry="10.66666"/>
        <rect class="cls-7" x="64" y="149.33333" width="21.33333" height="85.33333" rx="10.66666" ry="10.66666"/>
        <rect class="cls-7" x="106.66667" y="149.33333" width="21.33333" height="85.33333" rx="10.66666" ry="10.66666"/>
        <rect class="cls-7" x="149.33333" y="149.33333" width="21.33333" height="85.33333" rx="10.66666" ry="10.66666"/>
        <rect class="cls-8" x="149.33333" y="170.66667" width="21.33333" height="42.66667" rx="10.66666" ry="10.66666"/>
        <rect class="cls-8" x="106.66667" y="170.66667" width="21.33333" height="42.66667" rx="10.66666" ry="10.66666"/>
        <rect class="cls-8" x="64" y="170.66667" width="21.33333" height="42.66667" rx="10.66666" ry="10.66666"/>
        <rect class="cls-6" x="85.33333" y="149.33333" width="21.33333" height="85.33333" rx="10.66666" ry="10.66666"/>
        <rect class="cls-6" x="128" y="149.33333" width="21.33333" height="85.33333" rx="10.66666" ry="10.66666"/>
        <rect class="cls-6" x="170.66667" y="149.33333" width="21.33333" height="85.33333" rx="10.66666" ry="10.66666"/>
        <g>
          <circle class="cls-9" cx="192" cy="362.66667" r="42.66667"/>
          <circle class="cls-9" cx="405.33333" cy="362.66667" r="42.66667"/>
          <path class="cls-10" d="M85.33325,277.33333H256a0,0,0,0,1,0,0v85.33333a0,0,0,0,1,0,0H85.33333A42.66667,42.66667,0,0,1,42.66667,320v-.00009A42.66658,42.66658,0,0,1,85.33325,277.33333Z"/>
          <path class="cls-1" d="M469.33333,362.66667H256v-192h94.68687a42.66666,42.66666,0,0,1,41.39275,32.31848L405.33333,256h21.33334a42.66666,42.66666,0,0,1,42.66666,42.66667Z"/>
          <path class="cls-10" d="M384,362.66667H213.33333V222.68679a52.02012,52.02012,0,0,1,52.02012-52.02012h.00009a42.66667,42.66667,0,0,1,41.39275,32.31848L320,256h21.33333A42.66667,42.66667,0,0,1,384,298.66667Z"/>
          <circle class="cls-11" cx="320" cy="362.66667" r="42.66667"/>
          <circle class="cls-12" cx="320" cy="362.66667" r="21.33333"/>
          <circle class="cls-11" cx="106.66667" cy="362.66667" r="42.66667"/>
          <circle class="cls-12" cx="106.66667" cy="362.66667" r="21.33333"/>
          <rect class="cls-13" x="341.33333" y="320" width="149.33333" height="42.66667" rx="21.33331" ry="21.33331"/>
          <path class="cls-13" d="M298.66667,192v64H405.33333l-13.2539-53.01562A42.34445,42.34445,0,0,0,387.49089,192Z"/>
          <path class="cls-12" d="M234.66667,223.99994V224a32,32,0,0,0,32,32H320l-13.25391-53.01562A42.34445,42.34445,0,0,0,302.15755,192H266.6666A31.99994,31.99994,0,0,0,234.66667,223.99994Z"/>
          <rect class="cls-12" x="341.33333" y="320" width="64" height="42.66667" rx="21.33331" ry="21.33331"/>
          <circle class="cls-14" cx="416" cy="288" r="10.66667"/>
          <circle class="cls-14" cx="458.66667" cy="288" r="10.66667"/>
          <path class="cls-13" d="M42.61566,320.102H64a0,0,0,0,1,0,0v42.5647a0,0,0,0,1,0,0H42.61566a21.28233,21.28233,0,0,1-21.28233-21.28233v0A21.28233,21.28233,0,0,1,42.61566,320.102Z"/>
          <path class="cls-15" d="M288,192H266.42578l-.01562.0013H266.306l-.02083.0013h-.082l-.02213.00131h-.04948a.25129.25129,0,0,0-.03125.0013h-.05078l-.02474.0013h-.04948a.22111.22111,0,0,1-.02865.0013h-.02213l-.03.0013H265.875l-.03125.00131h-.02214l-.02864.0013h-.02344l-.02734.0013h-.02344a.22111.22111,0,0,1-.02865.0013l-.02083.0013h-.02995l-.02213.00131a.23089.23089,0,0,0-.02995.0013h-.02083l-.03.0013h-.02214a.221.221,0,0,1-.02864.0013l-.02084.00131a.262.262,0,0,0-.03125.0013h-.02083a.23089.23089,0,0,1-.02995.0013l-.02083.0013a.23089.23089,0,0,0-.03.0013h-.02083a.23925.23925,0,0,1-.02995.00131l-.02214.0013-.02864.0013-.02474.0013-.02734.0013-.02084.00131a.231.231,0,0,0-.03.0013h-.02083l-.03125.0026h-.01823l-.03125.00261h-.02344l-.02734.0026h-.02344l-.02734.00261-.02344.0013a.19255.19255,0,0,0-.02734.0013.11939.11939,0,0,0-.02214.0013.20185.20185,0,0,0-.02864.0013l-.02344.00131-.02734.0013a.14183.14183,0,0,1-.02344.0013.19269.19269,0,0,1-.02735.0013l-.02474.00261a.18371.18371,0,0,0-.026.0013l-.02474.0013-.026.0013-.026.00261a.14177.14177,0,0,0-.02344.0013l-.026.0013-.026.0013-.02344.00261a.19255.19255,0,0,0-.02734.0013l-.02344.0013-.02734.0026a.15658.15658,0,0,0-.02474.00131l-.02474.0013-.026.0026-.02605.00131-.02474.0026-.026.0013-.02213.0013-.02865.00261-.02213.0013-.02865.0026-.02214.00131-.02864.0026-.02214.0013-.02864.00261-.02084.0013a.23409.23409,0,0,1-.02864.0026l-.02344.00261-.02734.0013-.02214.0026a.19524.19524,0,0,0-.02864.00261l-.02214.0013-.02864.0026-.02084.00131a.23285.23285,0,0,1-.03.0026l-.02083.0026-.02995.00261-.01953.0013a.23285.23285,0,0,1-.02995.0026l-.02213.00261-.02865.0026-.02083.00261a.25463.25463,0,0,0-.03.0026l-.02083.0013a.23239.23239,0,0,1-.02865.00261l-.02083.0026-.03125.00261-.01953.0026a.25309.25309,0,0,0-.03125.0026l-.01693.00131-.03255.0039-.01953.0013-.02995.00391-.01953.0013-.03125.00391-.01953.0013-.03125.00391-.01693.0013-.03386.00391-.01822.0026a.27468.27468,0,0,0-.03256.0026l-.01562.00261-.03516.0039-.01562.00131-.03386.0039-.01562.0013-.03386.00391-.01822.00261a.276.276,0,0,1-.03126.0026l-.01822.0026-.03125.00391-.01954.0026-.03255.00391-.01562.0013-.03386.00391-.01692.0026-.03386.00391-.01562.0013-.03386.00521-.01692.0013-.03386.00391-.01432.0026-.03516.00391-.01692.0026-.03386.00391-.01432.0026-.03516.00391-.01562.0026-.03516.00391-.01432.0026-.03386.00391-.01692.0026-.03386.00391-.01432.0026a.37923.37923,0,0,0-.03776.00521l-.01172.00131c-.013.0013-.026.0039-.04036.0052l-.00782.00131-.03776.0052-.01432.00261-.03516.0039-.01432.00261-.03516.00521-.01562.0026a.32522.32522,0,0,0-.03516.00521l-.013.0013-.03646.00521-.01432.0026c-.013.00131-.026.00261-.03906.00521l-.00781.0013a.3766.3766,0,0,0-.04037.00651l-.01042.00131c-.01432.0013-.02994.0039-.04427.00651h-.0039l-.04167.00651-.00911.0013c-.01433.0026-.02865.00521-.043.00651l-.00651.0013-.04037.00651-.00911.0013-.043.00651-.00651.00131-.04037.00651-.00911.0013c-.01563.0026-.02995.00521-.04557.00651l-.00261.0013c-.01562.00261-.02995.00521-.04557.00651l-.00521.0013-.04687.00782h-.00131c-.013.0026-.02864.00521-.04166.00651l-.00912.0026a.39919.39919,0,0,0-.04166.00651l-.00782.0013c-.01432.00261-.02864.00521-.043.00651l-.00651.00131c-.03256.00651-.06381.01172-.09766.01692a32.00877,32.00877,0,0,0-26.53,31.14714,10.66706,10.66706,0,0,0,10.526,10.76432c.04818,0,.095.0013.14323.0013a10.66674,10.66674,0,0,0,10.66276-10.52734,10.70223,10.70223,0,0,1,10.66537-10.51693H288A10.66667,10.66667,0,1,0,288,192Z"/>
        </g>
        <rect class="cls-10" x="298.66667" y="213.33333" width="21.33333" height="42.66667" rx="10.66666" ry="10.66666"/>
        <rect class="cls-16" x="234.66667" y="128" width="85.33333" height="21.33333" rx="10.66666" ry="10.66666"/>
        <rect class="cls-8" x="42.66667" y="128" width="149.33333" height="21.33333" rx="10.66666" ry="10.66666"/>
        <rect class="cls-17" x="149.33333" y="341.33333" width="128" height="21.33333" rx="10.66666" ry="10.66666"/>
        <rect class="cls-1" x="85.33333" y="277.33333" width="128" height="21.33333" rx="10.66666" ry="10.66666"/>
        <rect class="cls-17" x="384" y="256" width="64" height="21.33333" rx="10.66666" ry="10.66666"/>
        <rect class="cls-18" x="320" y="192" width="64" height="21.33333" rx="10.66666" ry="10.66666"/>
        <rect class="cls-19" x="213.33333" y="234.66667" width="21.33333" height="106.66667" rx="10.66666" ry="10.66666"/>
        <rect class="cls-18" x="405.33333" y="341.33333" width="74.66666" height="21.33333" rx="10.66666" ry="10.66666"/>
      </g>
      <rect class="cls-19" x="277.33333" y="277.33333" width="42.66667" height="21.33333" rx="10.66666" ry="10.66666"/>
    </g>
  </g>
</svg>
